<?xml version="1.0" encoding="utf-8" standalone="no"?>
<!DOCTYPE svg PUBLIC "-//W3C//DTD SVG 1.1//EN"
  "http://www.w3.org/Graphics/SVG/1.1/DTD/svg11.dtd">
<svg xmlns:xlink="http://www.w3.org/1999/xlink" width="113.385827pt" height="113.385827pt" viewBox="0 0 113.385827 113.385827" xmlns="http://www.w3.org/2000/svg" version="1.1">
 <metadata>
  <rdf:RDF xmlns:dc="http://purl.org/dc/elements/1.1/" xmlns:cc="http://creativecommons.org/ns#" xmlns:rdf="http://www.w3.org/1999/02/22-rdf-syntax-ns#">
   <cc:Work>
    <dc:type rdf:resource="http://purl.org/dc/dcmitype/StillImage"/>
    <dc:date>2026-06-04T16:51:31.760412</dc:date>
    <dc:format>image/svg+xml</dc:format>
    <dc:creator>
     <cc:Agent>
      <dc:title>Matplotlib v3.10.7, https://matplotlib.org/</dc:title>
     </cc:Agent>
    </dc:creator>
   </cc:Work>
  </rdf:RDF>
 </metadata>
 <defs>
  <style type="text/css">*{stroke-linejoin: round; stroke-linecap: butt}</style>
 </defs>
 <g id="figure_1">
  <g id="patch_1">
   <path d="M 0 113.385827 
L 113.385827 113.385827 
L 113.385827 0 
L 0 0 
z
" style="fill: #ffffff"/>
  </g>
  <g id="axes_1">
   <g id="QuadContourSet_1">
    <path d="M 52.518253 63.889247 
L 53.228346 63.933302 
L 53.93844 63.874932 
L 53.942335 63.874016 
L 54.648533 63.652628 
L 55.358626 63.287194 
L 55.77496 62.992126 
L 56.068719 62.63689 
L 56.410386 62.110236 
L 56.493417 61.228346 
L 56.068719 60.452848 
L 55.996002 60.346457 
L 55.358626 59.935998 
L 54.648533 59.597071 
L 54.211408 59.464567 
L 53.93844 59.42047 
L 53.228346 59.367965 
L 52.518253 59.371504 
L 51.80816 59.423374 
L 51.499481 59.464567 
L 51.098067 59.560804 
L 50.387974 59.796678 
L 49.677881 60.083645 
L 49.109879 60.346457 
L 48.967788 60.553431 
L 48.557206 61.228346 
L 48.967788 62.106991 
L 48.969489 62.110236 
L 49.677881 62.645262 
L 50.166199 62.992126 
L 50.387974 63.112254 
L 51.098067 63.446702 
L 51.80816 63.716784 
L 52.440287 63.874016 
z
" clip-path="url(#pe479ebe136)" style="fill: #f1f7fd; fill-opacity: 0.5"/>
    <path d="M 51.80816 65.819116 
L 52.518253 65.917418 
L 53.228346 65.928237 
L 53.93844 65.851488 
L 54.648533 65.690546 
L 54.801344 65.637795 
L 55.358626 65.424647 
L 56.068719 65.084482 
L 56.662289 64.755906 
L 56.778812 64.677531 
L 57.488905 64.143159 
L 57.817574 63.874016 
L 58.198998 63.425863 
L 58.539665 62.992126 
L 58.869848 62.110236 
L 58.85157 61.228346 
L 58.536293 60.346457 
L 58.198998 59.895922 
L 57.822205 59.464567 
L 57.488905 59.231324 
L 56.778812 58.816904 
L 56.26789 58.582677 
L 56.068719 58.523887 
L 55.358626 58.366626 
L 54.648533 58.258025 
L 53.93844 58.19408 
L 53.228346 58.171898 
L 52.518253 58.18931 
L 51.80816 58.24395 
L 51.098067 58.332331 
L 50.387974 58.451662 
L 49.755446 58.582677 
L 49.677881 58.602479 
L 48.967788 58.8129 
L 48.257695 59.046119 
L 47.547602 59.298235 
L 47.10756 59.464567 
L 46.837509 59.632923 
L 46.127416 60.086745 
L 45.722932 60.346457 
L 45.417323 60.92563 
L 45.259257 61.228346 
L 45.417323 61.67289 
L 45.579688 62.110236 
L 46.127416 62.633874 
L 46.505351 62.992126 
L 46.837509 63.219694 
L 47.547602 63.711663 
L 47.782379 63.874016 
L 48.257695 64.174049 
L 48.967788 64.618896 
L 49.200206 64.755906 
L 49.677881 65.01705 
L 50.387974 65.358082 
L 51.098067 65.637242 
L 51.100016 65.637795 
z
M 52.440287 63.874016 
L 51.80816 63.716784 
L 51.098067 63.446702 
L 50.387974 63.112254 
L 50.166199 62.992126 
L 49.677881 62.645262 
L 48.969489 62.110236 
L 48.967788 62.106991 
L 48.557206 61.228346 
L 48.967788 60.553431 
L 49.109879 60.346457 
L 49.677881 60.083645 
L 50.387974 59.796678 
L 51.098067 59.560804 
L 51.499481 59.464567 
L 51.80816 59.423374 
L 52.518253 59.371504 
L 53.228346 59.367965 
L 53.93844 59.42047 
L 54.211408 59.464567 
L 54.648533 59.597071 
L 55.358626 59.935998 
L 55.996002 60.346457 
L 56.068719 60.452848 
L 56.493417 61.228346 
L 56.410386 62.110236 
L 56.068719 62.63689 
L 55.77496 62.992126 
L 55.358626 63.287194 
L 54.648533 63.652628 
L 53.942335 63.874016 
L 53.93844 63.874932 
L 53.228346 63.933302 
L 52.518253 63.889247 
z
" clip-path="url(#pe479ebe136)" style="fill: #e4eff9; fill-opacity: 0.5"/>
    <path d="M 51.80816 67.500904 
L 52.518253 67.551926 
L 53.228346 67.515407 
L 53.908602 67.401575 
L 53.93844 67.396548 
L 54.648533 67.201103 
L 55.358626 66.953066 
L 56.068719 66.665509 
L 56.394355 66.519685 
L 56.778812 66.332319 
L 57.488905 65.959774 
L 58.080173 65.637795 
L 58.198998 65.562092 
L 58.909091 65.096889 
L 59.428324 64.755906 
L 59.619184 64.591304 
L 60.329277 63.974511 
L 60.442147 63.874016 
L 61.018435 62.992126 
L 61.03937 62.871671 
L 61.157174 62.110236 
L 61.03937 61.659799 
L 60.933384 61.228346 
L 60.411743 60.346457 
L 60.329277 60.256861 
L 59.678681 59.464567 
L 59.619184 59.4106 
L 58.909091 58.75882 
L 58.692859 58.582677 
L 58.198998 58.310025 
L 57.488905 57.988367 
L 56.778812 57.733124 
L 56.66456 57.700787 
L 56.068719 57.542326 
L 55.358626 57.393587 
L 54.648533 57.285751 
L 53.93844 57.219407 
L 53.228346 57.194368 
L 52.518253 57.209643 
L 51.80816 57.263448 
L 51.098067 57.353257 
L 50.387974 57.475881 
L 49.677881 57.62759 
L 49.386113 57.700787 
L 48.967788 57.806725 
L 48.257695 58.009902 
L 47.547602 58.231154 
L 46.837509 58.465877 
L 46.500951 58.582677 
L 46.127416 58.738346 
L 45.417323 59.042805 
L 44.70723 59.347227 
L 44.434001 59.464567 
L 43.997137 59.758402 
L 43.287044 60.220361 
L 43.086303 60.346457 
L 42.576951 61.212181 
L 42.567062 61.228346 
L 42.576951 61.260245 
L 42.844722 62.110236 
L 43.287044 62.533577 
L 43.758645 62.992126 
L 43.997137 63.153564 
L 44.70723 63.64179 
L 45.037216 63.874016 
L 45.417323 64.126011 
L 46.127416 64.595987 
L 46.367654 64.755906 
L 46.837509 65.066565 
L 47.547602 65.534461 
L 47.704788 65.637795 
L 48.257695 65.996031 
L 48.967788 66.432965 
L 49.126592 66.519685 
L 49.677881 66.814859 
L 50.387974 67.12671 
L 51.098067 67.358853 
L 51.304526 67.401575 
z
M 51.100016 65.637795 
L 51.098067 65.637242 
L 50.387974 65.358082 
L 49.677881 65.01705 
L 49.200206 64.755906 
L 48.967788 64.618896 
L 48.257695 64.174049 
L 47.782379 63.874016 
L 47.547602 63.711663 
L 46.837509 63.219694 
L 46.505351 62.992126 
L 46.127416 62.633874 
L 45.579688 62.110236 
L 45.417323 61.67289 
L 45.259257 61.228346 
L 45.417323 60.92563 
L 45.722932 60.346457 
L 46.127416 60.086745 
L 46.837509 59.632923 
L 47.10756 59.464567 
L 47.547602 59.298235 
L 48.257695 59.046119 
L 48.967788 58.8129 
L 49.677881 58.602479 
L 49.755446 58.582677 
L 50.387974 58.451662 
L 51.098067 58.332331 
L 51.80816 58.24395 
L 52.518253 58.18931 
L 53.228346 58.171898 
L 53.93844 58.19408 
L 54.648533 58.258025 
L 55.358626 58.366626 
L 56.068719 58.523887 
L 56.26789 58.582677 
L 56.778812 58.816904 
L 57.488905 59.231324 
L 57.822205 59.464567 
L 58.198998 59.895922 
L 58.536293 60.346457 
L 58.85157 61.228346 
L 58.869848 62.110236 
L 58.539665 62.992126 
L 58.198998 63.425863 
L 57.817574 63.874016 
L 57.488905 64.143159 
L 56.778812 64.677531 
L 56.662289 64.755906 
L 56.068719 65.084482 
L 55.358626 65.424647 
L 54.801344 65.637795 
L 54.648533 65.690546 
L 53.93844 65.851488 
L 53.228346 65.928237 
L 52.518253 65.917418 
L 51.80816 65.819116 
z
" clip-path="url(#pe479ebe136)" style="fill: #d8e7f5; fill-opacity: 0.5"/>
    <path d="M 49.677881 68.540606 
L 50.387974 68.830989 
L 51.098067 69.018136 
L 51.80816 69.102706 
L 52.518253 69.089206 
L 53.228346 68.986394 
L 53.93844 68.81202 
L 54.648533 68.584655 
L 55.358626 68.320517 
L 55.445158 68.283465 
L 56.068719 68.019333 
L 56.778812 67.710795 
L 57.430591 67.401575 
L 57.488905 67.373229 
L 58.198998 67.035201 
L 58.909091 66.683142 
L 59.230633 66.519685 
L 59.619184 66.312931 
L 60.329277 65.935604 
L 60.87772 65.637795 
L 61.03937 65.537427 
L 61.749463 65.100365 
L 62.292755 64.755906 
L 62.459556 64.597189 
L 63.149336 63.874016 
L 63.169649 63.819754 
L 63.438185 62.992126 
L 63.304548 62.110236 
L 63.169649 61.855476 
L 62.870417 61.228346 
L 62.459556 60.696281 
L 62.210141 60.346457 
L 61.749463 59.885828 
L 61.352787 59.464567 
L 61.03937 59.208891 
L 60.329277 58.599497 
L 60.311251 58.582677 
L 59.619184 58.091042 
L 59.006369 57.700787 
L 58.909091 57.650359 
L 58.198998 57.329759 
L 57.488905 57.048391 
L 56.819884 56.818898 
L 56.778812 56.801757 
L 56.068719 56.559596 
L 55.358626 56.369708 
L 54.648533 56.233408 
L 53.93844 56.150881 
L 53.228346 56.121151 
L 52.518253 56.142109 
L 51.80816 56.210595 
L 51.098067 56.322545 
L 50.387974 56.473166 
L 49.677881 56.657147 
L 49.13825 56.818898 
L 48.967788 56.864064 
L 48.257695 57.07702 
L 47.547602 57.305923 
L 46.837509 57.549359 
L 46.430644 57.700787 
L 46.127416 57.811832 
L 45.417323 58.080189 
L 44.70723 58.347931 
L 44.105542 58.582677 
L 43.997137 58.631847 
L 43.287044 58.954348 
L 42.576951 59.264362 
L 42.10189 59.464567 
L 41.866858 59.613988 
L 41.156764 60.040272 
L 40.595142 60.346457 
L 40.446671 60.555635 
L 39.928607 61.228346 
L 40.167702 62.110236 
L 40.446671 62.35062 
L 41.156764 62.987816 
L 41.161426 62.992126 
L 41.866858 63.462362 
L 42.487274 63.874016 
L 42.576951 63.935785 
L 43.287044 64.417893 
L 43.796693 64.755906 
L 43.997137 64.895304 
L 44.70723 65.377661 
L 45.098542 65.637795 
L 45.417323 65.857918 
L 46.127416 66.332385 
L 46.413191 66.519685 
L 46.837509 66.805713 
L 47.547602 67.265031 
L 47.762498 67.401575 
L 48.257695 67.721967 
L 48.967788 68.157434 
L 49.205673 68.283465 
z
M 51.304526 67.401575 
L 51.098067 67.358853 
L 50.387974 67.12671 
L 49.677881 66.814859 
L 49.126592 66.519685 
L 48.967788 66.432965 
L 48.257695 65.996031 
L 47.704788 65.637795 
L 47.547602 65.534461 
L 46.837509 65.066565 
L 46.367654 64.755906 
L 46.127416 64.595987 
L 45.417323 64.126011 
L 45.037216 63.874016 
L 44.70723 63.64179 
L 43.997137 63.153564 
L 43.758645 62.992126 
L 43.287044 62.533577 
L 42.844722 62.110236 
L 42.576951 61.260245 
L 42.567062 61.228346 
L 42.576951 61.212181 
L 43.086303 60.346457 
L 43.287044 60.220361 
L 43.997137 59.758402 
L 44.434001 59.464567 
L 44.70723 59.347227 
L 45.417323 59.042805 
L 46.127416 58.738346 
L 46.500951 58.582677 
L 46.837509 58.465877 
L 47.547602 58.231154 
L 48.257695 58.009902 
L 48.967788 57.806725 
L 49.386113 57.700787 
L 49.677881 57.62759 
L 50.387974 57.475881 
L 51.098067 57.353257 
L 51.80816 57.263448 
L 52.518253 57.209643 
L 53.228346 57.194368 
L 53.93844 57.219407 
L 54.648533 57.285751 
L 55.358626 57.393587 
L 56.068719 57.542326 
L 56.66456 57.700787 
L 56.778812 57.733124 
L 57.488905 57.988367 
L 58.198998 58.310025 
L 58.692859 58.582677 
L 58.909091 58.75882 
L 59.619184 59.4106 
L 59.678681 59.464567 
L 60.329277 60.256861 
L 60.411743 60.346457 
L 60.933384 61.228346 
L 61.03937 61.659799 
L 61.157174 62.110236 
L 61.03937 62.871671 
L 61.018435 62.992126 
L 60.442147 63.874016 
L 60.329277 63.974511 
L 59.619184 64.591304 
L 59.428324 64.755906 
L 58.909091 65.096889 
L 58.198998 65.562092 
L 58.080173 65.637795 
L 57.488905 65.959774 
L 56.778812 66.332319 
L 56.394355 66.519685 
L 56.068719 66.665509 
L 55.358626 66.953066 
L 54.648533 67.201103 
L 53.93844 67.396548 
L 53.908602 67.401575 
L 53.228346 67.515407 
L 52.518253 67.551926 
L 51.80816 67.500904 
z
M 66.010021 62.181524 
L 66.078173 62.110236 
L 66.010021 61.99475 
L 65.936281 62.110236 
z
M 65.299928 61.506672 
L 65.566114 61.228346 
L 65.299928 60.928964 
L 65.041121 61.228346 
z
M 64.589835 60.589761 
L 64.770581 60.346457 
L 64.589835 60.202914 
L 64.386287 60.346457 
z
" clip-path="url(#pe479ebe136)" style="fill: #ccdff1; fill-opacity: 0.5"/>
    <path d="M 48.967788 70.081957 
L 49.677881 70.46892 
L 50.387974 70.724634 
L 51.098067 70.836553 
L 51.80816 70.820913 
L 52.518253 70.694108 
L 53.228346 70.504151 
L 53.93844 70.271131 
L 54.479192 70.047244 
L 54.648533 69.991288 
L 55.358626 69.760225 
L 56.068719 69.497864 
L 56.778812 69.177456 
L 56.804126 69.165354 
L 57.488905 68.921163 
L 58.198998 68.634616 
L 58.909091 68.284553 
L 58.911171 68.283465 
L 59.619184 68.000842 
L 60.329277 67.677204 
L 60.849425 67.401575 
L 61.03937 67.31684 
L 61.749463 66.993024 
L 62.459556 66.622068 
L 62.641266 66.519685 
L 63.169649 66.261787 
L 63.879742 65.890781 
L 64.323445 65.637795 
L 64.589835 65.469876 
L 65.299928 64.977493 
L 65.578245 64.755906 
L 65.943915 63.874016 
L 66.010021 63.763225 
L 66.720115 63.751137 
L 67.324789 62.992126 
L 66.98061 62.110236 
L 66.720115 61.808383 
L 66.340317 61.228346 
L 66.010021 60.901564 
L 65.534944 60.346457 
L 65.299928 60.137409 
L 64.589835 59.466356 
L 64.587646 59.464567 
L 63.879742 59.03779 
L 63.203582 58.582677 
L 63.169649 58.564249 
L 62.459556 58.526016 
L 61.749463 58.549236 
L 61.03937 58.066904 
L 60.536759 57.700787 
L 60.329277 57.57029 
L 59.619184 57.152261 
L 58.987613 56.818898 
L 58.909091 56.768633 
L 58.198998 56.364396 
L 57.488905 56.005654 
L 57.32922 55.937008 
L 56.778812 55.634237 
L 56.068719 55.316038 
L 55.358626 55.072298 
L 55.286327 55.055118 
L 54.648533 54.861833 
L 53.93844 54.746047 
L 53.228346 54.722681 
L 52.518253 54.782131 
L 51.80816 54.913283 
L 51.286112 55.055118 
L 51.098067 55.096441 
L 50.387974 55.300866 
L 49.677881 55.537754 
L 48.967788 55.800538 
L 48.633289 55.937008 
L 48.257695 56.063952 
L 47.547602 56.316827 
L 46.837509 56.592053 
L 46.309912 56.818898 
L 46.127416 56.883232 
L 45.417323 57.141449 
L 44.70723 57.424119 
L 44.092957 57.700787 
L 43.997137 57.736652 
L 43.287044 57.999007 
L 42.576951 58.287352 
L 41.950766 58.582677 
L 41.866858 58.6185 
L 41.156764 58.900543 
L 40.446671 59.190357 
L 39.879059 59.464567 
L 39.736578 59.543003 
L 39.026485 59.888351 
L 38.316392 60.205881 
L 38.016189 60.346457 
L 37.606299 60.722543 
L 36.927676 61.228346 
L 37.101371 62.110236 
L 37.606299 62.473399 
L 38.313386 62.992126 
L 38.316392 62.994214 
L 39.026485 63.481831 
L 39.646054 63.874016 
L 39.736578 63.940145 
L 40.446671 64.441939 
L 40.924202 64.755906 
L 41.156764 64.930828 
L 41.866858 65.432248 
L 42.173901 65.637795 
L 42.576951 65.94307 
L 43.287044 66.431091 
L 43.419741 66.519685 
L 43.997137 66.950204 
L 44.684289 67.401575 
L 44.70723 67.418744 
L 45.417323 67.925911 
L 45.987421 68.283465 
L 46.127416 68.381707 
L 46.837509 68.847982 
L 47.380132 69.165354 
L 47.547602 69.272943 
L 48.257695 69.700956 
L 48.907413 70.047244 
z
M 49.205673 68.283465 
L 48.967788 68.157434 
L 48.257695 67.721967 
L 47.762498 67.401575 
L 47.547602 67.265031 
L 46.837509 66.805713 
L 46.413191 66.519685 
L 46.127416 66.332385 
L 45.417323 65.857918 
L 45.098542 65.637795 
L 44.70723 65.377661 
L 43.997137 64.895304 
L 43.796693 64.755906 
L 43.287044 64.417893 
L 42.576951 63.935785 
L 42.487274 63.874016 
L 41.866858 63.462362 
L 41.161426 62.992126 
L 41.156764 62.987816 
L 40.446671 62.35062 
L 40.167702 62.110236 
L 39.928607 61.228346 
L 40.446671 60.555635 
L 40.595142 60.346457 
L 41.156764 60.040272 
L 41.866858 59.613988 
L 42.10189 59.464567 
L 42.576951 59.264362 
L 43.287044 58.954348 
L 43.997137 58.631847 
L 44.105542 58.582677 
L 44.70723 58.347931 
L 45.417323 58.080189 
L 46.127416 57.811832 
L 46.430644 57.700787 
L 46.837509 57.549359 
L 47.547602 57.305923 
L 48.257695 57.07702 
L 48.967788 56.864064 
L 49.13825 56.818898 
L 49.677881 56.657147 
L 50.387974 56.473166 
L 51.098067 56.322545 
L 51.80816 56.210595 
L 52.518253 56.142109 
L 53.228346 56.121151 
L 53.93844 56.150881 
L 54.648533 56.233408 
L 55.358626 56.369708 
L 56.068719 56.559596 
L 56.778812 56.801757 
L 56.819884 56.818898 
L 57.488905 57.048391 
L 58.198998 57.329759 
L 58.909091 57.650359 
L 59.006369 57.700787 
L 59.619184 58.091042 
L 60.311251 58.582677 
L 60.329277 58.599497 
L 61.03937 59.208891 
L 61.352787 59.464567 
L 61.749463 59.885828 
L 62.210141 60.346457 
L 62.459556 60.696281 
L 62.870417 61.228346 
L 63.169649 61.855476 
L 63.304548 62.110236 
L 63.438185 62.992126 
L 63.169649 63.819754 
L 63.149336 63.874016 
L 62.459556 64.597189 
L 62.292755 64.755906 
L 61.749463 65.100365 
L 61.03937 65.537427 
L 60.87772 65.637795 
L 60.329277 65.935604 
L 59.619184 66.312931 
L 59.230633 66.519685 
L 58.909091 66.683142 
L 58.198998 67.035201 
L 57.488905 67.373229 
L 57.430591 67.401575 
L 56.778812 67.710795 
L 56.068719 68.019333 
L 55.445158 68.283465 
L 55.358626 68.320517 
L 54.648533 68.584655 
L 53.93844 68.81202 
L 53.228346 68.986394 
L 52.518253 69.089206 
L 51.80816 69.102706 
L 51.098067 69.018136 
L 50.387974 68.830989 
L 49.677881 68.540606 
z
M 65.936281 62.110236 
L 66.010021 61.99475 
L 66.078173 62.110236 
L 66.010021 62.181524 
z
M 65.041121 61.228346 
L 65.299928 60.928964 
L 65.566114 61.228346 
L 65.299928 61.506672 
z
M 64.386287 60.346457 
L 64.589835 60.202914 
L 64.770581 60.346457 
L 64.589835 60.589761 
z
M 69.560487 53.336675 
L 70.27058 53.348851 
L 70.441803 53.291339 
L 70.27058 53.212406 
L 69.560487 53.100945 
L 69.302853 53.291339 
z
M 66.720115 52.417208 
L 67.430208 52.609798 
L 68.140301 52.771886 
L 68.850394 52.907245 
L 69.12396 52.409449 
L 68.850394 52.192705 
L 68.140301 52.003156 
L 67.530871 51.527559 
L 67.430208 51.412996 
L 66.720115 51.121205 
L 66.010021 50.963947 
L 65.621642 50.645669 
L 65.299928 50.407028 
L 64.589835 50.434029 
L 63.884322 50.645669 
L 64.589835 51.387164 
L 64.67941 51.527559 
L 65.299928 51.744459 
L 66.010021 52.028035 
L 66.68986 52.409449 
z
" clip-path="url(#pe479ebe136)" style="fill: #bcd7eb; fill-opacity: 0.5"/>
    <path d="M 58.909091 98.755965 
L 59.619184 98.809664 
L 60.329277 98.86537 
L 61.03937 98.926156 
L 61.749463 98.981941 
L 62.459556 99.025159 
L 63.169649 99.047776 
L 63.879742 99.050596 
L 64.589835 99.057258 
L 65.299928 99.075552 
L 66.010021 99.106741 
L 66.679428 99.149606 
L 66.720115 99.149606 
L 67.430208 98.267717 
L 68.140301 97.385827 
L 68.850394 97.385827 
L 69.560487 96.503937 
L 70.27058 96.503937 
L 70.980673 95.622047 
L 71.690766 95.622047 
L 72.400859 94.740157 
L 73.110952 93.858268 
L 73.821045 93.858268 
L 74.531138 92.976378 
L 75.241231 92.976378 
L 75.951324 92.094488 
L 76.661417 91.212598 
L 77.37151 90.330709 
L 77.37151 89.448819 
L 77.37151 88.566929 
L 77.37151 87.685039 
L 78.081603 86.80315 
L 78.081603 85.92126 
L 78.081603 85.03937 
L 78.791696 84.15748 
L 78.791696 83.275591 
L 78.791696 82.393701 
L 78.791696 81.511811 
L 79.50179 80.629921 
L 79.50179 79.748031 
L 79.50179 78.866142 
L 80.211883 77.984252 
L 80.211883 77.102362 
L 80.211883 76.220472 
L 80.211883 75.338583 
L 80.921976 74.456693 
L 80.921976 73.574803 
L 80.921976 72.692913 
L 81.632069 71.811024 
L 81.632069 70.929134 
L 81.632069 70.047244 
L 81.632069 69.165354 
L 82.342162 68.283465 
L 82.342162 67.401575 
L 82.342162 66.519685 
L 83.052255 65.637795 
L 83.052255 64.755906 
L 83.052255 63.874016 
L 83.052255 62.992126 
L 83.762348 62.110236 
L 83.762348 61.228346 
L 83.762348 60.346457 
L 83.762348 59.464567 
L 83.762348 58.712725 
L 83.163555 59.464567 
L 83.052255 59.571027 
L 82.342162 60.042737 
L 81.632069 60.203217 
L 80.921976 60.299823 
L 80.577632 60.346457 
L 80.211883 60.671936 
L 79.50179 61.14019 
L 78.791696 61.206425 
L 78.40097 61.228346 
L 78.081603 61.547499 
L 77.37151 61.966462 
L 76.661417 62.024112 
L 75.951324 62.073118 
L 75.241231 62.089092 
L 74.721691 62.110236 
L 74.531138 62.240878 
L 73.821045 62.418037 
L 73.110952 62.469225 
L 72.400859 62.676627 
L 71.690766 62.682637 
L 70.980673 62.715504 
L 70.27058 62.754783 
L 69.560487 62.780469 
L 68.850394 62.767508 
L 68.140301 62.463612 
L 67.888247 62.110236 
L 67.430208 61.775718 
L 66.967237 61.228346 
L 66.720115 61.020047 
L 66.074067 60.346457 
L 66.010021 60.289742 
L 65.299928 59.650404 
L 65.103457 59.464567 
L 64.589835 59.046977 
L 63.970435 58.582677 
L 63.879742 58.517716 
L 63.169649 58.125848 
L 62.459556 57.810884 
L 62.241234 57.700787 
L 61.749463 57.503195 
L 61.03937 57.183404 
L 60.481678 56.818898 
L 60.329277 56.670888 
L 59.619184 56.128026 
L 59.297338 55.937008 
L 58.909091 55.507579 
L 58.198998 55.07776 
L 58.163117 55.055118 
L 57.691799 54.173228 
L 58.115765 53.291339 
L 58.198998 53.19924 
L 58.909091 52.602596 
L 59.39312 52.409449 
L 59.619184 52.253553 
L 60.329277 51.967559 
L 61.03937 51.880122 
L 61.749463 51.907395 
L 62.459556 51.999735 
L 63.169649 52.130609 
L 63.879742 52.284391 
L 64.336089 52.409449 
L 64.589835 52.451832 
L 65.299928 52.601285 
L 66.010021 52.758802 
L 66.720115 52.92961 
L 67.430208 53.136118 
L 67.829496 53.291339 
L 68.140301 53.367025 
L 68.850394 53.550346 
L 69.560487 53.715621 
L 70.27058 53.927562 
L 70.786656 54.173228 
L 70.980673 54.219342 
L 71.690766 54.342764 
L 72.400859 54.426411 
L 73.110952 54.279595 
L 73.200664 54.173228 
L 73.110952 54.065247 
L 72.400859 53.683402 
L 71.696343 53.291339 
L 71.690766 53.282806 
L 70.980673 52.570149 
L 70.27058 52.418164 
L 70.257062 52.409449 
L 69.775943 51.527559 
L 69.560487 51.052989 
L 69.361543 50.645669 
L 68.936577 49.76378 
L 68.850394 49.579368 
L 68.486881 48.88189 
L 68.140301 48.204419 
L 68.018497 48 
L 67.509059 47.11811 
L 67.430208 46.97523 
L 66.916184 46.23622 
L 66.720115 45.942646 
L 66.156502 45.354331 
L 66.010021 45.200329 
L 65.299928 44.826408 
L 64.589835 44.814066 
L 63.879742 45.086184 
L 63.511763 45.354331 
L 63.169649 45.56832 
L 62.459556 46.004552 
L 61.749463 46.081979 
L 61.03937 46.096087 
L 60.329277 45.973451 
L 59.810569 45.354331 
L 59.999405 44.472441 
L 60.27825 43.590551 
L 60.329277 43.474224 
L 60.569844 42.708661 
L 60.876515 41.826772 
L 61.03937 41.415627 
L 61.191153 40.944882 
L 61.507644 40.062992 
L 61.749463 39.441035 
L 61.836087 39.181102 
L 62.152984 38.299213 
L 62.459556 37.512234 
L 62.491769 37.417323 
L 62.806435 36.535433 
L 63.151358 35.653543 
L 63.169649 35.609852 
L 63.465923 34.771654 
L 63.810095 33.889764 
L 63.879742 33.723727 
L 64.132428 33.007874 
L 64.476 32.125984 
L 64.589835 31.858144 
L 64.807731 31.244094 
L 65.15209 30.362205 
L 65.299928 30.022692 
L 65.494634 29.480315 
L 65.843222 28.598425 
L 66.010021 28.229293 
L 66.197521 27.716535 
L 66.55828 26.834646 
L 66.720115 26.494239 
L 66.923498 25.952756 
L 67.31381 25.070866 
L 67.430208 24.841418 
L 67.68477 24.188976 
L 68.140301 23.307841 
L 68.140696 23.307087 
L 68.506514 22.425197 
L 68.850394 21.819666 
L 69.037351 21.543307 
L 69.456344 20.661417 
L 69.560487 20.499717 
L 70.27058 19.927374 
L 70.980673 20.013377 
L 71.358707 19.779528 
L 71.690766 19.599113 
L 72.400859 19.120901 
L 72.621434 19.171578 
L 72.400859 18.897638 
L 72.400859 18.015748 
L 72.400859 17.133858 
L 71.690766 16.251969 
L 71.690766 15.370079 
L 71.690766 14.488189 
L 70.980673 14.488189 
L 70.27058 14.488189 
L 69.560487 14.488189 
L 68.850394 14.488189 
L 68.140301 14.488189 
L 67.430208 14.488189 
L 66.720115 14.488189 
L 66.010021 14.488189 
L 65.299928 14.488189 
L 64.589835 14.488189 
L 63.879742 14.488189 
L 63.169649 14.488189 
L 62.459556 15.370079 
L 61.749463 16.251969 
L 61.03937 17.133858 
L 60.329277 18.015748 
L 59.619184 18.897638 
L 58.909091 19.779528 
L 58.198998 20.661417 
L 57.488905 21.543307 
L 56.778812 22.425197 
L 56.068719 23.307087 
L 55.358626 24.188976 
L 54.648533 25.070866 
L 53.93844 25.070866 
L 53.228346 25.952756 
L 52.518253 26.834646 
L 51.80816 27.716535 
L 51.098067 28.598425 
L 50.387974 29.480315 
L 49.677881 30.362205 
L 48.967788 31.244094 
L 48.257695 32.125984 
L 47.547602 33.007874 
L 46.837509 33.889764 
L 46.127416 34.771654 
L 45.417323 35.653543 
L 44.70723 36.535433 
L 43.997137 37.417323 
L 43.287044 38.299213 
L 42.576951 39.181102 
L 41.866858 40.062992 
L 41.156764 40.944882 
L 40.446671 41.826772 
L 39.736578 42.708661 
L 39.026485 43.590551 
L 38.316392 44.472441 
L 37.606299 45.354331 
L 36.896206 46.23622 
L 36.186113 47.11811 
L 35.47602 48 
L 34.765927 48.88189 
L 34.055834 49.76378 
L 33.345741 50.645669 
L 32.635648 51.527559 
L 31.925555 51.527559 
L 31.215462 52.409449 
L 30.505369 53.291339 
L 29.795276 54.173228 
L 29.085183 55.055118 
L 28.375089 55.937008 
L 27.664996 56.818898 
L 26.954903 57.700787 
L 26.954903 58.582677 
L 26.24481 59.464567 
L 25.534717 60.346457 
L 24.824624 61.228346 
L 24.824624 62.110236 
L 24.114531 62.992126 
L 23.404438 63.874016 
L 22.694345 64.755906 
L 22.694345 65.637795 
L 21.984252 66.519685 
L 21.984252 67.401575 
L 21.274159 68.283465 
L 21.274159 69.165354 
L 20.564066 70.047244 
L 20.564066 70.929134 
L 19.853973 71.811024 
L 19.853973 72.692913 
L 19.14388 73.574803 
L 19.14388 74.456693 
L 18.433787 75.338583 
L 18.433787 76.220472 
L 17.723694 77.102362 
L 17.723694 77.984252 
L 17.013601 78.866142 
L 17.013601 79.748031 
L 16.303508 80.629921 
L 16.303508 81.511811 
L 16.303508 82.393701 
L 15.593414 83.275591 
L 15.593414 84.15748 
L 14.883321 85.03937 
L 14.883321 85.92126 
L 15.593414 85.92126 
L 16.303508 85.92126 
L 17.013601 86.80315 
L 17.723694 86.80315 
L 18.433787 86.80315 
L 19.14388 86.80315 
L 19.853973 87.685039 
L 20.564066 87.685039 
L 21.274159 87.685039 
L 21.984252 87.685039 
L 22.694345 88.566929 
L 23.404438 88.566929 
L 24.114531 88.566929 
L 24.824624 88.566929 
L 25.534717 88.566929 
L 26.24481 89.448819 
L 26.954903 89.448819 
L 27.664996 89.448819 
L 28.375089 89.448819 
L 29.085183 90.330709 
L 29.795276 90.330709 
L 30.505369 90.330709 
L 31.215462 90.330709 
L 31.925555 91.212598 
L 32.635648 91.212598 
L 33.345741 91.212598 
L 34.055834 91.212598 
L 34.765927 92.094488 
L 35.47602 92.094488 
L 36.186113 92.094488 
L 36.896206 92.094488 
L 37.606299 92.976378 
L 38.316392 92.976378 
L 39.026485 92.976378 
L 39.736578 92.976378 
L 40.446671 92.976378 
L 41.156764 93.858268 
L 41.866858 93.858268 
L 42.576951 93.858268 
L 43.287044 93.858268 
L 43.997137 94.740157 
L 44.70723 94.740157 
L 45.417323 94.740157 
L 46.127416 94.740157 
L 46.837509 95.622047 
L 47.547602 95.622047 
L 48.257695 95.622047 
L 48.967788 95.622047 
L 49.677881 96.503937 
L 50.387974 96.503937 
L 51.098067 96.503937 
L 51.80816 96.503937 
L 52.518253 97.385827 
L 53.228346 97.385827 
L 53.93844 97.385827 
L 54.648533 97.385827 
L 55.358626 97.385827 
L 56.068719 98.267717 
L 56.778812 98.267717 
L 57.488905 98.267717 
L 58.198998 98.267717 
L 58.562546 98.71922 
z
M 18.273757 81.511811 
L 18.052769 80.629921 
L 18.188351 79.748031 
L 18.433787 78.914778 
L 18.447943 78.866142 
L 18.718696 77.984252 
L 19.053664 77.102362 
L 19.14388 76.889587 
L 19.402232 76.220472 
L 19.815182 75.338583 
L 19.853973 75.263608 
L 20.248017 74.456693 
L 20.564066 73.906981 
L 20.764254 73.574803 
L 21.274159 72.802193 
L 21.359896 72.692913 
L 21.984252 71.926441 
L 22.120084 71.811024 
L 22.694345 71.336989 
L 23.404438 71.022162 
L 24.028271 70.929134 
L 24.114531 70.916676 
L 24.267977 70.929134 
L 24.824624 70.967333 
L 25.534717 71.129738 
L 26.24481 71.373223 
L 26.954903 71.676437 
L 27.198929 71.811024 
L 27.664996 72.115575 
L 28.375089 72.676692 
L 28.395808 72.692913 
L 29.085183 73.417105 
L 29.23964 73.574803 
L 29.795276 74.395673 
L 29.83824 74.456693 
L 30.198558 75.338583 
L 30.311709 76.220472 
L 30.156261 77.102362 
L 29.795276 77.791958 
L 29.687387 77.984252 
L 29.085183 78.621642 
L 28.83381 78.866142 
L 28.375089 79.184618 
L 27.664996 79.636484 
L 27.479305 79.748031 
L 26.954903 80.002241 
L 26.24481 80.320534 
L 25.534717 80.615895 
L 25.500154 80.629921 
L 24.824624 80.874479 
L 24.114531 81.103828 
L 23.404438 81.320012 
L 22.74196 81.511811 
L 22.694345 81.524613 
L 21.984252 81.682898 
L 21.274159 81.813013 
L 20.564066 81.905236 
L 19.853973 81.939528 
L 19.14388 81.879447 
L 18.433787 81.648121 
z
M 44.95572 75.338583 
L 45.408288 74.456693 
L 45.417323 74.45507 
L 46.127416 74.362668 
L 46.837509 74.307501 
L 47.547602 74.28304 
L 48.257695 74.285699 
L 48.967788 74.321746 
L 49.677881 74.393966 
L 50.096579 74.456693 
L 50.379084 75.338583 
L 49.677881 75.509976 
L 48.967788 75.659485 
L 48.257695 75.774635 
L 47.547602 75.839992 
L 46.837509 75.831752 
L 46.127416 75.728714 
L 45.417323 75.523718 
z
M 78.264668 75.338583 
L 78.081603 75.008393 
L 77.813845 74.456693 
L 77.520557 73.574803 
L 77.37151 72.712139 
L 77.368132 72.692913 
L 77.37151 72.313915 
L 77.376613 71.811024 
L 77.578228 70.929134 
L 78.021852 70.047244 
L 78.081603 69.969623 
L 78.791696 69.336183 
L 79.50179 69.169864 
L 80.211883 69.841586 
L 80.279825 70.047244 
L 80.411157 70.929134 
L 80.37735 71.811024 
L 80.306054 72.692913 
L 80.211883 73.56788 
L 80.209049 73.574803 
L 79.843674 74.456693 
L 79.595475 75.338583 
L 79.50179 75.730412 
L 78.791696 76.077185 
z
M 48.907413 70.047244 
L 48.257695 69.700956 
L 47.547602 69.272943 
L 47.380132 69.165354 
L 46.837509 68.847982 
L 46.127416 68.381707 
L 45.987421 68.283465 
L 45.417323 67.925911 
L 44.70723 67.418744 
L 44.684289 67.401575 
L 43.997137 66.950204 
L 43.419741 66.519685 
L 43.287044 66.431091 
L 42.576951 65.94307 
L 42.173901 65.637795 
L 41.866858 65.432248 
L 41.156764 64.930828 
L 40.924202 64.755906 
L 40.446671 64.441939 
L 39.736578 63.940145 
L 39.646054 63.874016 
L 39.026485 63.481831 
L 38.316392 62.994214 
L 38.313386 62.992126 
L 37.606299 62.473399 
L 37.101371 62.110236 
L 36.927676 61.228346 
L 37.606299 60.722543 
L 38.016189 60.346457 
L 38.316392 60.205881 
L 39.026485 59.888351 
L 39.736578 59.543003 
L 39.879059 59.464567 
L 40.446671 59.190357 
L 41.156764 58.900543 
L 41.866858 58.6185 
L 41.950766 58.582677 
L 42.576951 58.287352 
L 43.287044 57.999007 
L 43.997137 57.736652 
L 44.092957 57.700787 
L 44.70723 57.424119 
L 45.417323 57.141449 
L 46.127416 56.883232 
L 46.309912 56.818898 
L 46.837509 56.592053 
L 47.547602 56.316827 
L 48.257695 56.063952 
L 48.633289 55.937008 
L 48.967788 55.800538 
L 49.677881 55.537754 
L 50.387974 55.300866 
L 51.098067 55.096441 
L 51.286112 55.055118 
L 51.80816 54.913283 
L 52.518253 54.782131 
L 53.228346 54.722681 
L 53.93844 54.746047 
L 54.648533 54.861833 
L 55.286327 55.055118 
L 55.358626 55.072298 
L 56.068719 55.316038 
L 56.778812 55.634237 
L 57.32922 55.937008 
L 57.488905 56.005654 
L 58.198998 56.364396 
L 58.909091 56.768633 
L 58.987613 56.818898 
L 59.619184 57.152261 
L 60.329277 57.57029 
L 60.536759 57.700787 
L 61.03937 58.066904 
L 61.749463 58.549236 
L 62.459556 58.526016 
L 63.169649 58.564249 
L 63.203582 58.582677 
L 63.879742 59.03779 
L 64.587646 59.464567 
L 64.589835 59.466356 
L 65.299928 60.137409 
L 65.534944 60.346457 
L 66.010021 60.901564 
L 66.340317 61.228346 
L 66.720115 61.808383 
L 66.98061 62.110236 
L 67.324789 62.992126 
L 66.720115 63.751137 
L 66.010021 63.763225 
L 65.943915 63.874016 
L 65.578245 64.755906 
L 65.299928 64.977493 
L 64.589835 65.469876 
L 64.323445 65.637795 
L 63.879742 65.890781 
L 63.169649 66.261787 
L 62.641266 66.519685 
L 62.459556 66.622068 
L 61.749463 66.993024 
L 61.03937 67.31684 
L 60.849425 67.401575 
L 60.329277 67.677204 
L 59.619184 68.000842 
L 58.911171 68.283465 
L 58.909091 68.284553 
L 58.198998 68.634616 
L 57.488905 68.921163 
L 56.804126 69.165354 
L 56.778812 69.177456 
L 56.068719 69.497864 
L 55.358626 69.760225 
L 54.648533 69.991288 
L 54.479192 70.047244 
L 53.93844 70.271131 
L 53.228346 70.504151 
L 52.518253 70.694108 
L 51.80816 70.820913 
L 51.098067 70.836553 
L 50.387974 70.724634 
L 49.677881 70.46892 
L 48.967788 70.081957 
z
M 41.46101 56.818898 
L 41.866858 56.566121 
L 42.576951 56.509866 
L 42.872198 56.818898 
L 42.576951 56.902313 
L 41.866858 57.01998 
z
M 32.421483 55.937008 
L 32.635648 55.757298 
L 33.345741 55.311692 
L 33.652454 55.055118 
L 34.055834 54.509001 
L 34.581717 54.173228 
L 34.765927 53.674505 
L 34.915647 53.291339 
L 35.273258 52.409449 
L 35.47602 51.929919 
L 35.656402 51.527559 
L 36.067408 50.645669 
L 36.186113 50.399073 
L 36.510961 49.76378 
L 36.896206 49.034896 
L 36.982779 48.88189 
L 37.479172 48 
L 37.606299 47.770794 
L 38.001172 47.11811 
L 38.316392 46.595358 
L 38.554026 46.23622 
L 39.026485 45.517963 
L 39.145418 45.354331 
L 39.736578 44.534015 
L 39.786013 44.472441 
L 40.446671 43.64026 
L 40.491073 43.590551 
L 41.156764 42.834759 
L 41.283252 42.708661 
L 41.866858 42.116911 
L 42.197742 41.826772 
L 42.576951 41.487536 
L 43.287044 40.948741 
L 43.293055 40.944882 
L 43.997137 40.47796 
L 44.70723 40.104853 
L 44.811273 40.062992 
L 45.417323 39.8077 
L 46.127416 39.604998 
L 46.837509 39.501832 
L 47.547602 39.502369 
L 48.257695 39.613035 
L 48.967788 39.843454 
L 49.405175 40.062992 
L 49.677881 40.186337 
L 50.387974 40.614488 
L 50.831852 40.944882 
L 51.098067 41.118172 
L 51.80816 41.659389 
L 52.000861 41.826772 
L 52.518253 42.213809 
L 53.122044 42.708661 
L 53.228346 42.783605 
L 53.93844 43.329838 
L 54.256433 43.590551 
L 54.648533 43.867052 
L 55.358626 44.392028 
L 55.461247 44.472441 
L 56.068719 44.883182 
L 56.749076 45.354331 
L 56.778812 45.372227 
L 57.488905 45.823196 
L 58.198998 46.155904 
L 58.474325 46.23622 
L 58.821692 47.11811 
L 58.706943 48 
L 58.363725 48.88189 
L 58.198998 49.022211 
L 57.538261 49.76378 
L 57.488905 49.787446 
L 56.778812 50.202785 
L 56.269482 50.645669 
L 56.068719 50.729356 
L 55.358626 51.025317 
L 54.648533 51.48507 
L 54.597437 51.527559 
L 53.93844 52.261599 
L 53.525269 52.409449 
L 53.228346 52.458172 
L 52.518253 52.715499 
L 51.80816 53.035595 
L 51.359016 53.291339 
L 51.098067 53.394644 
L 50.387974 53.682562 
L 49.677881 54.018667 
L 49.394361 54.173228 
L 48.967788 54.329599 
L 48.257695 54.602071 
L 47.547602 54.927565 
L 47.321126 55.055118 
L 46.837509 55.220098 
L 46.127416 55.474429 
L 45.417323 55.764034 
L 45.154815 55.937008 
L 44.70723 56.077853 
L 43.997137 56.298356 
L 43.287044 56.434676 
L 42.935261 55.937008 
L 42.576951 55.368138 
L 41.866858 55.381976 
L 41.156764 55.486202 
L 40.446671 55.586166 
L 39.736578 55.680566 
L 39.026485 55.783378 
L 38.316392 55.905806 
L 38.146152 55.937008 
L 37.606299 56.032515 
L 36.896206 56.129478 
L 36.186113 56.20715 
L 35.47602 56.263987 
L 34.765927 56.293144 
L 34.055834 56.28534 
L 33.345741 56.219925 
L 32.635648 56.041814 
z
M 69.302853 53.291339 
L 69.560487 53.100945 
L 70.27058 53.212406 
L 70.441803 53.291339 
L 70.27058 53.348851 
L 69.560487 53.336675 
z
M 66.68986 52.409449 
L 66.010021 52.028035 
L 65.299928 51.744459 
L 64.67941 51.527559 
L 64.589835 51.387164 
L 63.884322 50.645669 
L 64.589835 50.434029 
L 65.299928 50.407028 
L 65.621642 50.645669 
L 66.010021 50.963947 
L 66.720115 51.121205 
L 67.430208 51.412996 
L 67.530871 51.527559 
L 68.140301 52.003156 
L 68.850394 52.192705 
L 69.12396 52.409449 
L 68.850394 52.907245 
L 68.140301 52.771886 
L 67.430208 52.609798 
L 66.720115 52.417208 
z
M 43.997137 55.094016 
L 44.083398 55.055118 
L 43.997137 55.036092 
L 43.651003 55.055118 
z
" clip-path="url(#pe479ebe136)" style="fill: #a8cee4; fill-opacity: 0.5"/>
    <path d="M 61.749463 100.031496 
L 62.459556 100.031496 
L 63.169649 100.031496 
L 63.879742 100.031496 
L 64.589835 100.031496 
L 65.299928 100.031496 
L 66.010021 99.149606 
L 66.679428 99.149606 
L 66.010021 99.106741 
L 65.299928 99.075552 
L 64.589835 99.057258 
L 63.879742 99.050596 
L 63.169649 99.047776 
L 62.459556 99.025159 
L 61.749463 98.981941 
L 61.03937 98.926156 
L 60.329277 98.86537 
L 59.619184 98.809664 
L 58.909091 98.755965 
L 58.562546 98.71922 
L 58.909091 99.149606 
L 59.619184 99.149606 
L 60.329277 99.149606 
L 61.03937 99.149606 
z
M 18.433787 81.648121 
L 19.14388 81.879447 
L 19.853973 81.939528 
L 20.564066 81.905236 
L 21.274159 81.813013 
L 21.984252 81.682898 
L 22.694345 81.524613 
L 22.74196 81.511811 
L 23.404438 81.320012 
L 24.114531 81.103828 
L 24.824624 80.874479 
L 25.500154 80.629921 
L 25.534717 80.615895 
L 26.24481 80.320534 
L 26.954903 80.002241 
L 27.479305 79.748031 
L 27.664996 79.636484 
L 28.375089 79.184618 
L 28.83381 78.866142 
L 29.085183 78.621642 
L 29.687387 77.984252 
L 29.795276 77.791958 
L 30.156261 77.102362 
L 30.311709 76.220472 
L 30.198558 75.338583 
L 29.83824 74.456693 
L 29.795276 74.395673 
L 29.23964 73.574803 
L 29.085183 73.417105 
L 28.395808 72.692913 
L 28.375089 72.676692 
L 27.664996 72.115575 
L 27.198929 71.811024 
L 26.954903 71.676437 
L 26.24481 71.373223 
L 25.534717 71.129738 
L 24.824624 70.967333 
L 24.267977 70.929134 
L 24.114531 70.916676 
L 24.028271 70.929134 
L 23.404438 71.022162 
L 22.694345 71.336989 
L 22.120084 71.811024 
L 21.984252 71.926441 
L 21.359896 72.692913 
L 21.274159 72.802193 
L 20.764254 73.574803 
L 20.564066 73.906981 
L 20.248017 74.456693 
L 19.853973 75.263608 
L 19.815182 75.338583 
L 19.402232 76.220472 
L 19.14388 76.889587 
L 19.053664 77.102362 
L 18.718696 77.984252 
L 18.447943 78.866142 
L 18.433787 78.914778 
L 18.188351 79.748031 
L 18.052769 80.629921 
L 18.273757 81.511811 
z
M 45.417323 75.523718 
L 46.127416 75.728714 
L 46.837509 75.831752 
L 47.547602 75.839992 
L 48.257695 75.774635 
L 48.967788 75.659485 
L 49.677881 75.509976 
L 50.379084 75.338583 
L 50.096579 74.456693 
L 49.677881 74.393966 
L 48.967788 74.321746 
L 48.257695 74.285699 
L 47.547602 74.28304 
L 46.837509 74.307501 
L 46.127416 74.362668 
L 45.417323 74.45507 
L 45.408288 74.456693 
L 44.95572 75.338583 
z
M 78.791696 76.077185 
L 79.50179 75.730412 
L 79.595475 75.338583 
L 79.843674 74.456693 
L 80.209049 73.574803 
L 80.211883 73.56788 
L 80.306054 72.692913 
L 80.37735 71.811024 
L 80.411157 70.929134 
L 80.279825 70.047244 
L 80.211883 69.841586 
L 79.50179 69.169864 
L 78.791696 69.336183 
L 78.081603 69.969623 
L 78.021852 70.047244 
L 77.578228 70.929134 
L 77.376613 71.811024 
L 77.37151 72.313915 
L 77.368132 72.692913 
L 77.37151 72.712139 
L 77.520557 73.574803 
L 77.813845 74.456693 
L 78.081603 75.008393 
L 78.264668 75.338583 
z
M 68.140301 62.463612 
L 68.850394 62.767508 
L 69.560487 62.780469 
L 70.27058 62.754783 
L 70.980673 62.715504 
L 71.690766 62.682637 
L 72.400859 62.676627 
L 73.110952 62.469225 
L 73.821045 62.418037 
L 74.531138 62.240878 
L 74.721691 62.110236 
L 75.241231 62.089092 
L 75.951324 62.073118 
L 76.661417 62.024112 
L 77.37151 61.966462 
L 78.081603 61.547499 
L 78.40097 61.228346 
L 78.791696 61.206425 
L 79.50179 61.14019 
L 80.211883 60.671936 
L 80.577632 60.346457 
L 80.921976 60.299823 
L 81.632069 60.203217 
L 82.342162 60.042737 
L 83.052255 59.571027 
L 83.163555 59.464567 
L 83.762348 58.712725 
L 83.762348 58.582677 
L 83.762348 57.700787 
L 83.052255 56.818898 
L 83.052255 55.937008 
L 83.052255 55.055118 
L 82.342162 54.173228 
L 82.342162 53.291339 
L 82.342162 52.409449 
L 81.632069 51.527559 
L 81.632069 50.645669 
L 81.632069 49.76378 
L 81.292066 49.341518 
L 81.309123 49.76378 
L 81.338372 50.645669 
L 81.308391 51.527559 
L 81.19136 52.409449 
L 80.942374 53.291339 
L 80.921976 53.341082 
L 80.328633 54.173228 
L 80.211883 54.34001 
L 79.50179 54.914056 
L 78.855021 55.055118 
L 78.791696 55.068972 
L 78.750812 55.055118 
L 78.081603 54.828049 
L 77.37151 54.232168 
L 77.325456 54.173228 
L 76.661417 53.319732 
L 76.64436 53.291339 
L 76.121612 52.409449 
L 75.951324 52.116663 
L 75.663816 51.527559 
L 75.244032 50.645669 
L 75.241231 50.639543 
L 74.886698 49.76378 
L 74.544705 48.88189 
L 74.531138 48.844704 
L 74.247424 48 
L 73.970719 47.11811 
L 73.821045 46.597573 
L 73.722357 46.23622 
L 73.505403 45.354331 
L 73.314567 44.472441 
L 73.152413 43.590551 
L 73.110952 43.31305 
L 73.022605 42.708661 
L 72.924738 41.826772 
L 72.85956 40.944882 
L 72.829242 40.062992 
L 72.83276 39.181102 
L 72.868752 38.299213 
L 72.936583 37.417323 
L 73.03639 36.535433 
L 73.110952 36.036727 
L 73.179077 35.653543 
L 73.383199 34.771654 
L 73.648557 33.889764 
L 73.821045 33.429469 
L 74.097551 33.007874 
L 74.531138 32.508609 
L 75.241231 32.450824 
L 75.951324 32.961993 
L 75.98266 33.007874 
L 76.65211 33.889764 
L 76.661417 33.900879 
L 77.125826 34.771654 
L 77.37151 35.185033 
L 77.37151 34.771654 
L 76.661417 33.889764 
L 76.661417 33.007874 
L 76.661417 32.125984 
L 75.951324 31.244094 
L 75.951324 30.362205 
L 75.951324 29.480315 
L 75.241231 28.598425 
L 75.241231 27.716535 
L 75.241231 26.834646 
L 74.531138 25.952756 
L 74.531138 25.070866 
L 74.531138 24.188976 
L 73.821045 23.307087 
L 73.821045 22.425197 
L 73.110952 21.543307 
L 73.110952 20.661417 
L 73.110952 19.779528 
L 72.621434 19.171578 
L 72.400859 19.120901 
L 71.690766 19.599113 
L 71.358707 19.779528 
L 70.980673 20.013377 
L 70.27058 19.927374 
L 69.560487 20.499717 
L 69.456344 20.661417 
L 69.037351 21.543307 
L 68.850394 21.819666 
L 68.506514 22.425197 
L 68.140696 23.307087 
L 68.140301 23.307841 
L 67.68477 24.188976 
L 67.430208 24.841418 
L 67.31381 25.070866 
L 66.923498 25.952756 
L 66.720115 26.494239 
L 66.55828 26.834646 
L 66.197521 27.716535 
L 66.010021 28.229293 
L 65.843222 28.598425 
L 65.494634 29.480315 
L 65.299928 30.022692 
L 65.15209 30.362205 
L 64.807731 31.244094 
L 64.589835 31.858144 
L 64.476 32.125984 
L 64.132428 33.007874 
L 63.879742 33.723727 
L 63.810095 33.889764 
L 63.465923 34.771654 
L 63.169649 35.609852 
L 63.151358 35.653543 
L 62.806435 36.535433 
L 62.491769 37.417323 
L 62.459556 37.512234 
L 62.152984 38.299213 
L 61.836087 39.181102 
L 61.749463 39.441035 
L 61.507644 40.062992 
L 61.191153 40.944882 
L 61.03937 41.415627 
L 60.876515 41.826772 
L 60.569844 42.708661 
L 60.329277 43.474224 
L 60.27825 43.590551 
L 59.999405 44.472441 
L 59.810569 45.354331 
L 60.329277 45.973451 
L 61.03937 46.096087 
L 61.749463 46.081979 
L 62.459556 46.004552 
L 63.169649 45.56832 
L 63.511763 45.354331 
L 63.879742 45.086184 
L 64.589835 44.814066 
L 65.299928 44.826408 
L 66.010021 45.200329 
L 66.156502 45.354331 
L 66.720115 45.942646 
L 66.916184 46.23622 
L 67.430208 46.97523 
L 67.509059 47.11811 
L 68.018497 48 
L 68.140301 48.204419 
L 68.486881 48.88189 
L 68.850394 49.579368 
L 68.936577 49.76378 
L 69.361543 50.645669 
L 69.560487 51.052989 
L 69.775943 51.527559 
L 70.257062 52.409449 
L 70.27058 52.418164 
L 70.980673 52.570149 
L 71.690766 53.282806 
L 71.696343 53.291339 
L 72.400859 53.683402 
L 73.110952 54.065247 
L 73.200664 54.173228 
L 73.110952 54.279595 
L 72.400859 54.426411 
L 71.690766 54.342764 
L 70.980673 54.219342 
L 70.786656 54.173228 
L 70.27058 53.927562 
L 69.560487 53.715621 
L 68.850394 53.550346 
L 68.140301 53.367025 
L 67.829496 53.291339 
L 67.430208 53.136118 
L 66.720115 52.92961 
L 66.010021 52.758802 
L 65.299928 52.601285 
L 64.589835 52.451832 
L 64.336089 52.409449 
L 63.879742 52.284391 
L 63.169649 52.130609 
L 62.459556 51.999735 
L 61.749463 51.907395 
L 61.03937 51.880122 
L 60.329277 51.967559 
L 59.619184 52.253553 
L 59.39312 52.409449 
L 58.909091 52.602596 
L 58.198998 53.19924 
L 58.115765 53.291339 
L 57.691799 54.173228 
L 58.163117 55.055118 
L 58.198998 55.07776 
L 58.909091 55.507579 
L 59.297338 55.937008 
L 59.619184 56.128026 
L 60.329277 56.670888 
L 60.481678 56.818898 
L 61.03937 57.183404 
L 61.749463 57.503195 
L 62.241234 57.700787 
L 62.459556 57.810884 
L 63.169649 58.125848 
L 63.879742 58.517716 
L 63.970435 58.582677 
L 64.589835 59.046977 
L 65.103457 59.464567 
L 65.299928 59.650404 
L 66.010021 60.289742 
L 66.074067 60.346457 
L 66.720115 61.020047 
L 66.967237 61.228346 
L 67.430208 61.775718 
L 67.888247 62.110236 
z
M 67.609586 61.228346 
L 67.430208 61.125953 
L 66.720115 60.51524 
L 66.558232 60.346457 
L 66.010021 59.860997 
L 65.584515 59.464567 
L 65.299928 59.210554 
L 64.589835 58.62837 
L 64.528879 58.582677 
L 63.879742 58.117717 
L 63.189791 57.700787 
L 63.169649 57.687805 
L 62.459556 57.312819 
L 61.749463 56.933399 
L 61.56093 56.818898 
L 61.03937 56.2344 
L 60.744492 55.937008 
L 60.329277 55.287139 
L 60.16093 55.055118 
L 59.780161 54.173228 
L 60.329277 53.639007 
L 61.03937 53.375867 
L 61.451166 53.291339 
L 61.749463 53.211971 
L 62.459556 53.091876 
L 63.169649 53.040106 
L 63.879742 53.04331 
L 64.589835 53.090607 
L 65.299928 53.174014 
L 66.010021 53.288335 
L 66.02346 53.291339 
L 66.720115 53.399316 
L 67.430208 53.53537 
L 68.140301 53.696724 
L 68.850394 53.87825 
L 69.560487 54.094567 
L 69.748721 54.173228 
L 70.27058 54.326239 
L 70.980673 54.508289 
L 71.690766 54.708875 
L 72.400859 54.994324 
L 72.525573 55.055118 
L 73.110952 55.193136 
L 73.821045 55.345206 
L 74.531138 55.518226 
L 75.241231 55.831277 
L 75.378001 55.937008 
L 75.951324 56.039492 
L 76.661417 56.143962 
L 77.37151 56.206789 
L 78.081603 56.811805 
L 78.083397 56.818898 
L 78.791696 56.909266 
L 79.50179 56.953516 
L 80.211883 57.259179 
L 80.466133 57.700787 
L 80.921976 57.924254 
L 81.632069 58.17412 
L 82.138115 58.582677 
L 81.632069 58.974925 
L 80.921976 59.321632 
L 80.548028 59.464567 
L 80.211883 59.582402 
L 79.50179 59.876137 
L 78.791696 60.18277 
L 78.081603 60.313866 
L 77.906022 60.346457 
L 77.37151 60.468586 
L 76.661417 60.620824 
L 75.951324 60.851773 
L 75.241231 61.019815 
L 74.531138 61.11334 
L 73.821045 61.204668 
L 73.645779 61.228346 
L 73.110952 61.337355 
L 72.400859 61.499039 
L 71.690766 61.608798 
L 70.980673 61.703888 
L 70.27058 61.779481 
L 69.560487 61.82872 
L 68.850394 61.809352 
L 68.140301 61.647876 
z
M 41.866858 57.01998 
L 42.576951 56.902313 
L 42.872198 56.818898 
L 42.576951 56.509866 
L 41.866858 56.566121 
L 41.46101 56.818898 
z
M 32.635648 56.041814 
L 33.345741 56.219925 
L 34.055834 56.28534 
L 34.765927 56.293144 
L 35.47602 56.263987 
L 36.186113 56.20715 
L 36.896206 56.129478 
L 37.606299 56.032515 
L 38.146152 55.937008 
L 38.316392 55.905806 
L 39.026485 55.783378 
L 39.736578 55.680566 
L 40.446671 55.586166 
L 41.156764 55.486202 
L 41.866858 55.381976 
L 42.576951 55.368138 
L 42.935261 55.937008 
L 43.287044 56.434676 
L 43.997137 56.298356 
L 44.70723 56.077853 
L 45.154815 55.937008 
L 45.417323 55.764034 
L 46.127416 55.474429 
L 46.837509 55.220098 
L 47.321126 55.055118 
L 47.547602 54.927565 
L 48.257695 54.602071 
L 48.967788 54.329599 
L 49.394361 54.173228 
L 49.677881 54.018667 
L 50.387974 53.682562 
L 51.098067 53.394644 
L 51.359016 53.291339 
L 51.80816 53.035595 
L 52.518253 52.715499 
L 53.228346 52.458172 
L 53.525269 52.409449 
L 53.93844 52.261599 
L 54.597437 51.527559 
L 54.648533 51.48507 
L 55.358626 51.025317 
L 56.068719 50.729356 
L 56.269482 50.645669 
L 56.778812 50.202785 
L 57.488905 49.787446 
L 57.538261 49.76378 
L 58.198998 49.022211 
L 58.363725 48.88189 
L 58.706943 48 
L 58.821692 47.11811 
L 58.474325 46.23622 
L 58.198998 46.155904 
L 57.488905 45.823196 
L 56.778812 45.372227 
L 56.749076 45.354331 
L 56.068719 44.883182 
L 55.461247 44.472441 
L 55.358626 44.392028 
L 54.648533 43.867052 
L 54.256433 43.590551 
L 53.93844 43.329838 
L 53.228346 42.783605 
L 53.122044 42.708661 
L 52.518253 42.213809 
L 52.000861 41.826772 
L 51.80816 41.659389 
L 51.098067 41.118172 
L 50.831852 40.944882 
L 50.387974 40.614488 
L 49.677881 40.186337 
L 49.405175 40.062992 
L 48.967788 39.843454 
L 48.257695 39.613035 
L 47.547602 39.502369 
L 46.837509 39.501832 
L 46.127416 39.604998 
L 45.417323 39.8077 
L 44.811273 40.062992 
L 44.70723 40.104853 
L 43.997137 40.47796 
L 43.293055 40.944882 
L 43.287044 40.948741 
L 42.576951 41.487536 
L 42.197742 41.826772 
L 41.866858 42.116911 
L 41.283252 42.708661 
L 41.156764 42.834759 
L 40.491073 43.590551 
L 40.446671 43.64026 
L 39.786013 44.472441 
L 39.736578 44.534015 
L 39.145418 45.354331 
L 39.026485 45.517963 
L 38.554026 46.23622 
L 38.316392 46.595358 
L 38.001172 47.11811 
L 37.606299 47.770794 
L 37.479172 48 
L 36.982779 48.88189 
L 36.896206 49.034896 
L 36.510961 49.76378 
L 36.186113 50.399073 
L 36.067408 50.645669 
L 35.656402 51.527559 
L 35.47602 51.929919 
L 35.273258 52.409449 
L 34.915647 53.291339 
L 34.765927 53.674505 
L 34.581717 54.173228 
L 34.055834 54.509001 
L 33.652454 55.055118 
L 33.345741 55.311692 
L 32.635648 55.757298 
L 32.421483 55.937008 
z
M 43.651003 55.055118 
L 43.997137 55.036092 
L 44.083398 55.055118 
L 43.997137 55.094016 
z
" clip-path="url(#pe479ebe136)" style="fill: #91c3de; fill-opacity: 0.5"/>
    <path d="M 68.140301 61.647876 
L 68.850394 61.809352 
L 69.560487 61.82872 
L 70.27058 61.779481 
L 70.980673 61.703888 
L 71.690766 61.608798 
L 72.400859 61.499039 
L 73.110952 61.337355 
L 73.645779 61.228346 
L 73.821045 61.204668 
L 74.531138 61.11334 
L 75.241231 61.019815 
L 75.951324 60.851773 
L 76.661417 60.620824 
L 77.37151 60.468586 
L 77.906022 60.346457 
L 78.081603 60.313866 
L 78.791696 60.18277 
L 79.50179 59.876137 
L 80.211883 59.582402 
L 80.548028 59.464567 
L 80.921976 59.321632 
L 81.632069 58.974925 
L 82.138115 58.582677 
L 81.632069 58.17412 
L 80.921976 57.924254 
L 80.466133 57.700787 
L 80.211883 57.259179 
L 79.50179 56.953516 
L 78.791696 56.909266 
L 78.083397 56.818898 
L 78.081603 56.811805 
L 77.37151 56.206789 
L 76.661417 56.143962 
L 75.951324 56.039492 
L 75.378001 55.937008 
L 75.241231 55.831277 
L 74.531138 55.518226 
L 73.821045 55.345206 
L 73.110952 55.193136 
L 72.525573 55.055118 
L 72.400859 54.994324 
L 71.690766 54.708875 
L 70.980673 54.508289 
L 70.27058 54.326239 
L 69.748721 54.173228 
L 69.560487 54.094567 
L 68.850394 53.87825 
L 68.140301 53.696724 
L 67.430208 53.53537 
L 66.720115 53.399316 
L 66.02346 53.291339 
L 66.010021 53.288335 
L 65.299928 53.174014 
L 64.589835 53.090607 
L 63.879742 53.04331 
L 63.169649 53.040106 
L 62.459556 53.091876 
L 61.749463 53.211971 
L 61.451166 53.291339 
L 61.03937 53.375867 
L 60.329277 53.639007 
L 59.780161 54.173228 
L 60.16093 55.055118 
L 60.329277 55.287139 
L 60.744492 55.937008 
L 61.03937 56.2344 
L 61.56093 56.818898 
L 61.749463 56.933399 
L 62.459556 57.312819 
L 63.169649 57.687805 
L 63.189791 57.700787 
L 63.879742 58.117717 
L 64.528879 58.582677 
L 64.589835 58.62837 
L 65.299928 59.210554 
L 65.584515 59.464567 
L 66.010021 59.860997 
L 66.558232 60.346457 
L 66.720115 60.51524 
L 67.430208 61.125953 
L 67.609586 61.228346 
z
M 67.059335 60.346457 
L 66.720115 60.076831 
L 66.043749 59.464567 
L 66.010021 59.433056 
L 65.299928 58.799801 
L 65.035491 58.582677 
L 64.589835 58.208856 
L 63.879742 57.717717 
L 63.851727 57.700787 
L 63.169649 57.261166 
L 62.459556 56.854253 
L 62.397069 56.818898 
L 61.749463 56.053342 
L 61.646643 55.937008 
L 61.099944 55.055118 
L 61.143825 54.173228 
L 61.749463 53.932812 
L 62.459556 53.764346 
L 63.169649 53.664996 
L 63.879742 53.61431 
L 64.589835 53.602781 
L 65.299928 53.626147 
L 66.010021 53.681345 
L 66.720115 53.766517 
L 67.430208 53.881473 
L 68.140301 54.026423 
L 68.719727 54.173228 
L 68.850394 54.201662 
L 69.560487 54.388662 
L 70.27058 54.592117 
L 70.980673 54.797235 
L 71.650065 55.055118 
L 71.690766 55.068158 
L 72.400859 55.273135 
L 73.110952 55.467819 
L 73.821045 55.694595 
L 74.361789 55.937008 
L 74.531138 55.986478 
L 75.241231 56.167961 
L 75.951324 56.354081 
L 76.661417 56.614458 
L 77.020209 56.818898 
L 77.37151 56.934395 
L 78.081603 57.117649 
L 78.791696 57.306984 
L 79.481633 57.700787 
L 79.50179 57.728418 
L 80.211883 58.31638 
L 80.707765 58.582677 
L 80.211883 58.846128 
L 79.50179 59.146378 
L 78.791696 59.392921 
L 78.567335 59.464567 
L 78.081603 59.646859 
L 77.37151 59.857721 
L 76.661417 60.029947 
L 75.951324 60.180238 
L 75.241231 60.317458 
L 75.086598 60.346457 
L 74.531138 60.490935 
L 73.821045 60.644155 
L 73.110952 60.774971 
L 72.400859 60.891289 
L 71.690766 60.99665 
L 70.980673 61.092363 
L 70.27058 61.162013 
L 69.560487 61.184257 
L 68.850394 61.149072 
L 68.140301 61.046091 
L 67.430208 60.674793 
z
M 78.791696 55.068972 
L 78.855021 55.055118 
L 79.50179 54.914056 
L 80.211883 54.34001 
L 80.328633 54.173228 
L 80.921976 53.341082 
L 80.942374 53.291339 
L 81.19136 52.409449 
L 81.308391 51.527559 
L 81.338372 50.645669 
L 81.309123 49.76378 
L 81.292066 49.341518 
L 80.921976 48.88189 
L 80.921976 48 
L 80.921976 47.11811 
L 80.211883 46.23622 
L 80.211883 45.354331 
L 80.211883 44.472441 
L 79.50179 43.590551 
L 79.50179 42.708661 
L 79.50179 41.826772 
L 78.791696 40.944882 
L 78.791696 40.062992 
L 78.081603 39.181102 
L 78.081603 38.299213 
L 78.081603 37.417323 
L 77.37151 36.535433 
L 77.37151 35.653543 
L 77.37151 35.185033 
L 77.125826 34.771654 
L 76.661417 33.900879 
L 76.65211 33.889764 
L 75.98266 33.007874 
L 75.951324 32.961993 
L 75.241231 32.450824 
L 74.531138 32.508609 
L 74.097551 33.007874 
L 73.821045 33.429469 
L 73.648557 33.889764 
L 73.383199 34.771654 
L 73.179077 35.653543 
L 73.110952 36.036727 
L 73.03639 36.535433 
L 72.936583 37.417323 
L 72.868752 38.299213 
L 72.83276 39.181102 
L 72.829242 40.062992 
L 72.85956 40.944882 
L 72.924738 41.826772 
L 73.022605 42.708661 
L 73.110952 43.31305 
L 73.152413 43.590551 
L 73.314567 44.472441 
L 73.505403 45.354331 
L 73.722357 46.23622 
L 73.821045 46.597573 
L 73.970719 47.11811 
L 74.247424 48 
L 74.531138 48.844704 
L 74.544705 48.88189 
L 74.886698 49.76378 
L 75.241231 50.639543 
L 75.244032 50.645669 
L 75.663816 51.527559 
L 75.951324 52.116663 
L 76.121612 52.409449 
L 76.64436 53.291339 
L 76.661417 53.319732 
L 77.325456 54.173228 
L 77.37151 54.232168 
L 78.081603 54.828049 
L 78.750812 55.055118 
z
" clip-path="url(#pe479ebe136)" style="fill: #77b5d9; fill-opacity: 0.5"/>
    <path d="M 67.430208 60.674793 
L 68.140301 61.046091 
L 68.850394 61.149072 
L 69.560487 61.184257 
L 70.27058 61.162013 
L 70.980673 61.092363 
L 71.690766 60.99665 
L 72.400859 60.891289 
L 73.110952 60.774971 
L 73.821045 60.644155 
L 74.531138 60.490935 
L 75.086598 60.346457 
L 75.241231 60.317458 
L 75.951324 60.180238 
L 76.661417 60.029947 
L 77.37151 59.857721 
L 78.081603 59.646859 
L 78.567335 59.464567 
L 78.791696 59.392921 
L 79.50179 59.146378 
L 80.211883 58.846128 
L 80.707765 58.582677 
L 80.211883 58.31638 
L 79.50179 57.728418 
L 79.481633 57.700787 
L 78.791696 57.306984 
L 78.081603 57.117649 
L 77.37151 56.934395 
L 77.020209 56.818898 
L 76.661417 56.614458 
L 75.951324 56.354081 
L 75.241231 56.167961 
L 74.531138 55.986478 
L 74.361789 55.937008 
L 73.821045 55.694595 
L 73.110952 55.467819 
L 72.400859 55.273135 
L 71.690766 55.068158 
L 71.650065 55.055118 
L 70.980673 54.797235 
L 70.27058 54.592117 
L 69.560487 54.388662 
L 68.850394 54.201662 
L 68.719727 54.173228 
L 68.140301 54.026423 
L 67.430208 53.881473 
L 66.720115 53.766517 
L 66.010021 53.681345 
L 65.299928 53.626147 
L 64.589835 53.602781 
L 63.879742 53.61431 
L 63.169649 53.664996 
L 62.459556 53.764346 
L 61.749463 53.932812 
L 61.143825 54.173228 
L 61.099944 55.055118 
L 61.646643 55.937008 
L 61.749463 56.053342 
L 62.397069 56.818898 
L 62.459556 56.854253 
L 63.169649 57.261166 
L 63.851727 57.700787 
L 63.879742 57.717717 
L 64.589835 58.208856 
L 65.035491 58.582677 
L 65.299928 58.799801 
L 66.010021 59.433056 
L 66.043749 59.464567 
L 66.720115 60.076831 
L 67.059335 60.346457 
z
M 67.792645 60.346457 
L 67.430208 60.217625 
L 66.720115 59.671774 
L 66.491214 59.464567 
L 66.010021 59.014999 
L 65.522269 58.582677 
L 65.299928 58.368815 
L 64.589835 57.789231 
L 64.461746 57.700787 
L 63.879742 57.278747 
L 63.169649 56.834527 
L 63.142539 56.818898 
L 62.459556 55.963591 
L 62.437106 55.937008 
L 61.986241 55.055118 
L 62.459556 54.513897 
L 63.169649 54.214768 
L 63.381341 54.173228 
L 63.879742 54.107099 
L 64.589835 54.056941 
L 65.299928 54.047211 
L 66.010021 54.073577 
L 66.720115 54.133719 
L 67.008842 54.173228 
L 67.430208 54.222337 
L 68.140301 54.337634 
L 68.850394 54.484823 
L 69.560487 54.66053 
L 70.27058 54.857995 
L 70.890745 55.055118 
L 70.980673 55.082357 
L 71.690766 55.308456 
L 72.400859 55.517289 
L 73.110952 55.742503 
L 73.606691 55.937008 
L 73.821045 56.006245 
L 74.531138 56.214145 
L 75.241231 56.418375 
L 75.951324 56.668669 
L 76.276436 56.818898 
L 76.661417 56.976509 
L 77.37151 57.205865 
L 78.081603 57.416571 
L 78.784422 57.700787 
L 78.791696 57.720626 
L 79.361095 58.582677 
L 78.791696 58.825373 
L 78.081603 59.083651 
L 77.37151 59.308937 
L 76.831343 59.464567 
L 76.661417 59.515574 
L 75.951324 59.705483 
L 75.241231 59.868715 
L 74.531138 60.014104 
L 73.821045 60.147122 
L 73.110952 60.271402 
L 72.657079 60.346457 
L 72.400859 60.395868 
L 71.690766 60.512961 
L 70.980673 60.600599 
L 70.27058 60.653661 
L 69.560487 60.659727 
L 68.850394 60.608965 
L 68.140301 60.491327 
z
" clip-path="url(#pe479ebe136)" style="fill: #60a7d2; fill-opacity: 0.5"/>
    <path d="M 68.140301 60.491327 
L 68.850394 60.608965 
L 69.560487 60.659727 
L 70.27058 60.653661 
L 70.980673 60.600599 
L 71.690766 60.512961 
L 72.400859 60.395868 
L 72.657079 60.346457 
L 73.110952 60.271402 
L 73.821045 60.147122 
L 74.531138 60.014104 
L 75.241231 59.868715 
L 75.951324 59.705483 
L 76.661417 59.515574 
L 76.831343 59.464567 
L 77.37151 59.308937 
L 78.081603 59.083651 
L 78.791696 58.825373 
L 79.361095 58.582677 
L 78.791696 57.720626 
L 78.784422 57.700787 
L 78.081603 57.416571 
L 77.37151 57.205865 
L 76.661417 56.976509 
L 76.276436 56.818898 
L 75.951324 56.668669 
L 75.241231 56.418375 
L 74.531138 56.214145 
L 73.821045 56.006245 
L 73.606691 55.937008 
L 73.110952 55.742503 
L 72.400859 55.517289 
L 71.690766 55.308456 
L 70.980673 55.082357 
L 70.890745 55.055118 
L 70.27058 54.857995 
L 69.560487 54.66053 
L 68.850394 54.484823 
L 68.140301 54.337634 
L 67.430208 54.222337 
L 67.008842 54.173228 
L 66.720115 54.133719 
L 66.010021 54.073577 
L 65.299928 54.047211 
L 64.589835 54.056941 
L 63.879742 54.107099 
L 63.381341 54.173228 
L 63.169649 54.214768 
L 62.459556 54.513897 
L 61.986241 55.055118 
L 62.437106 55.937008 
L 62.459556 55.963591 
L 63.142539 56.818898 
L 63.169649 56.834527 
L 63.879742 57.278747 
L 64.461746 57.700787 
L 64.589835 57.789231 
L 65.299928 58.368815 
L 65.522269 58.582677 
L 66.010021 59.014999 
L 66.491214 59.464567 
L 66.720115 59.671774 
L 67.430208 60.217625 
L 67.792645 60.346457 
z
M 67.041335 59.464567 
L 66.720115 59.244104 
L 66.010021 58.596941 
L 65.993928 58.582677 
L 65.299928 57.915141 
L 65.034014 57.700787 
L 64.589835 57.319499 
L 63.879742 56.838056 
L 63.849082 56.818898 
L 63.197312 55.937008 
L 63.169649 55.768816 
L 63.001744 55.055118 
L 63.169649 54.943554 
L 63.879742 54.66383 
L 64.589835 54.524423 
L 65.299928 54.460007 
L 66.010021 54.446098 
L 66.720115 54.472263 
L 67.430208 54.535081 
L 68.140301 54.634006 
L 68.850394 54.767984 
L 69.560487 54.932399 
L 70.011947 55.055118 
L 70.27058 55.125468 
L 70.980673 55.335723 
L 71.690766 55.548755 
L 72.400859 55.761442 
L 72.905929 55.937008 
L 73.110952 56.006675 
L 73.821045 56.232378 
L 74.531138 56.441813 
L 75.241231 56.668789 
L 75.620641 56.818898 
L 75.951324 56.983978 
L 76.661417 57.255232 
L 77.37151 57.477336 
L 78.041553 57.700787 
L 78.020614 58.582677 
L 77.37151 58.815228 
L 76.661417 59.03897 
L 75.951324 59.238914 
L 75.241231 59.419911 
L 75.050011 59.464567 
L 74.531138 59.58128 
L 73.821045 59.721995 
L 73.110952 59.84658 
L 72.400859 59.957617 
L 71.690766 60.054184 
L 70.980673 60.124165 
L 70.27058 60.158882 
L 69.560487 60.150076 
L 68.850394 60.089219 
L 68.140301 59.967716 
L 67.430208 59.744397 
z
" clip-path="url(#pe479ebe136)" style="fill: #4d99ca; fill-opacity: 0.5"/>
    <path d="M 67.430208 59.744397 
L 68.140301 59.967716 
L 68.850394 60.089219 
L 69.560487 60.150076 
L 70.27058 60.158882 
L 70.980673 60.124165 
L 71.690766 60.054184 
L 72.400859 59.957617 
L 73.110952 59.84658 
L 73.821045 59.721995 
L 74.531138 59.58128 
L 75.050011 59.464567 
L 75.241231 59.419911 
L 75.951324 59.238914 
L 76.661417 59.03897 
L 77.37151 58.815228 
L 78.020614 58.582677 
L 78.041553 57.700787 
L 77.37151 57.477336 
L 76.661417 57.255232 
L 75.951324 56.983978 
L 75.620641 56.818898 
L 75.241231 56.668789 
L 74.531138 56.441813 
L 73.821045 56.232378 
L 73.110952 56.006675 
L 72.905929 55.937008 
L 72.400859 55.761442 
L 71.690766 55.548755 
L 70.980673 55.335723 
L 70.27058 55.125468 
L 70.011947 55.055118 
L 69.560487 54.932399 
L 68.850394 54.767984 
L 68.140301 54.634006 
L 67.430208 54.535081 
L 66.720115 54.472263 
L 66.010021 54.446098 
L 65.299928 54.460007 
L 64.589835 54.524423 
L 63.879742 54.66383 
L 63.169649 54.943554 
L 63.001744 55.055118 
L 63.169649 55.768816 
L 63.197312 55.937008 
L 63.849082 56.818898 
L 63.879742 56.838056 
L 64.589835 57.319499 
L 65.034014 57.700787 
L 65.299928 57.915141 
L 65.993928 58.582677 
L 66.010021 58.596941 
L 66.720115 59.244104 
L 67.041335 59.464567 
z
M 68.189417 59.464567 
L 68.140301 59.454672 
L 67.430208 59.241241 
L 66.720115 58.792754 
L 66.489204 58.582677 
L 66.010021 58.094727 
L 65.586461 57.700787 
L 65.299928 57.392597 
L 64.589835 56.836385 
L 64.563943 56.818898 
L 63.970511 55.937008 
L 64.386471 55.055118 
L 64.589835 54.99649 
L 65.299928 54.869271 
L 66.010021 54.811906 
L 66.720115 54.807351 
L 67.430208 54.847825 
L 68.140301 54.930378 
L 68.850394 55.051146 
L 68.868099 55.055118 
L 69.560487 55.217169 
L 70.27058 55.397517 
L 70.980673 55.589089 
L 71.690766 55.789053 
L 72.178383 55.937008 
L 72.400859 56.010809 
L 73.110952 56.245347 
L 73.821045 56.458511 
L 74.531138 56.66948 
L 74.972099 56.818898 
L 75.241231 56.976856 
L 75.951324 57.299946 
L 76.661417 57.533954 
L 77.209534 57.700787 
L 76.661417 58.535021 
L 76.609381 58.582677 
L 75.951324 58.780779 
L 75.241231 58.970551 
L 74.531138 59.139396 
L 73.821045 59.288954 
L 73.110952 59.419329 
L 72.81564 59.464567 
L 72.400859 59.525699 
L 71.690766 59.608485 
L 70.980673 59.664126 
L 70.27058 59.684831 
L 69.560487 59.662489 
L 68.850394 59.588727 
z
" clip-path="url(#pe479ebe136)" style="fill: #3989c1; fill-opacity: 0.5"/>
    <path d="M 68.850394 59.588727 
L 69.560487 59.662489 
L 70.27058 59.684831 
L 70.980673 59.664126 
L 71.690766 59.608485 
L 72.400859 59.525699 
L 72.81564 59.464567 
L 73.110952 59.419329 
L 73.821045 59.288954 
L 74.531138 59.139396 
L 75.241231 58.970551 
L 75.951324 58.780779 
L 76.609381 58.582677 
L 76.661417 58.535021 
L 77.209534 57.700787 
L 76.661417 57.533954 
L 75.951324 57.299946 
L 75.241231 56.976856 
L 74.972099 56.818898 
L 74.531138 56.66948 
L 73.821045 56.458511 
L 73.110952 56.245347 
L 72.400859 56.010809 
L 72.178383 55.937008 
L 71.690766 55.789053 
L 70.980673 55.589089 
L 70.27058 55.397517 
L 69.560487 55.217169 
L 68.868099 55.055118 
L 68.850394 55.051146 
L 68.140301 54.930378 
L 67.430208 54.847825 
L 66.720115 54.807351 
L 66.010021 54.811906 
L 65.299928 54.869271 
L 64.589835 54.99649 
L 64.386471 55.055118 
L 63.970511 55.937008 
L 64.563943 56.818898 
L 64.589835 56.836385 
L 65.299928 57.392597 
L 65.586461 57.700787 
L 66.010021 58.094727 
L 66.489204 58.582677 
L 66.720115 58.792754 
L 67.430208 59.241241 
L 68.140301 59.454672 
L 68.189417 59.464567 
z
M 67.233276 58.582677 
L 66.720115 58.264023 
L 66.144237 57.700787 
L 66.010021 57.532751 
L 65.313354 56.818898 
L 65.299928 56.787463 
L 64.83004 55.937008 
L 65.299928 55.520873 
L 66.010021 55.263093 
L 66.720115 55.183874 
L 67.430208 55.195684 
L 68.140301 55.265977 
L 68.850394 55.375696 
L 69.560487 55.512556 
L 70.27058 55.669566 
L 70.980673 55.842455 
L 71.330517 55.937008 
L 71.690766 56.050425 
L 72.400859 56.273519 
L 73.110952 56.484019 
L 73.821045 56.684644 
L 74.270776 56.818898 
L 74.531138 56.999053 
L 75.241231 57.371203 
L 75.951324 57.615913 
L 76.235993 57.700787 
L 75.951324 57.984078 
L 75.241231 58.458607 
L 74.990318 58.582677 
L 74.531138 58.694166 
L 73.821045 58.843764 
L 73.110952 58.9704 
L 72.400859 59.07287 
L 71.690766 59.148278 
L 70.980673 59.192031 
L 70.27058 59.198936 
L 69.560487 59.161305 
L 68.850394 59.070516 
L 68.140301 58.917933 
L 67.430208 58.69478 
z
" clip-path="url(#pe479ebe136)" style="fill: #2979b9; fill-opacity: 0.5"/>
    <path d="M 67.430208 58.69478 
L 68.140301 58.917933 
L 68.850394 59.070516 
L 69.560487 59.161305 
L 70.27058 59.198936 
L 70.980673 59.192031 
L 71.690766 59.148278 
L 72.400859 59.07287 
L 73.110952 58.9704 
L 73.821045 58.843764 
L 74.531138 58.694166 
L 74.990318 58.582677 
L 75.241231 58.458607 
L 75.951324 57.984078 
L 76.235993 57.700787 
L 75.951324 57.615913 
L 75.241231 57.371203 
L 74.531138 56.999053 
L 74.270776 56.818898 
L 73.821045 56.684644 
L 73.110952 56.484019 
L 72.400859 56.273519 
L 71.690766 56.050425 
L 71.330517 55.937008 
L 70.980673 55.842455 
L 70.27058 55.669566 
L 69.560487 55.512556 
L 68.850394 55.375696 
L 68.140301 55.265977 
L 67.430208 55.195684 
L 66.720115 55.183874 
L 66.010021 55.263093 
L 65.299928 55.520873 
L 64.83004 55.937008 
L 65.299928 56.787463 
L 65.313354 56.818898 
L 66.010021 57.532751 
L 66.144237 57.700787 
L 66.720115 58.264023 
L 67.233276 58.582677 
z
M 69.092598 58.582677 
L 68.850394 58.53899 
L 68.140301 58.338756 
L 67.430208 58.05336 
L 66.787095 57.700787 
L 66.720115 57.641505 
L 66.065225 56.818898 
L 66.010021 56.440857 
L 65.907981 55.937008 
L 66.010021 55.883661 
L 66.720115 55.677961 
L 67.430208 55.61257 
L 68.140301 55.630084 
L 68.850394 55.700836 
L 69.560487 55.807943 
L 70.244088 55.937008 
L 70.27058 55.943774 
L 70.980673 56.149226 
L 71.690766 56.345564 
L 72.400859 56.53623 
L 73.110952 56.722691 
L 73.464588 56.818898 
L 73.821045 57.122157 
L 74.531138 57.52321 
L 75.009396 57.700787 
L 74.531138 57.975299 
L 73.821045 58.2759 
L 73.110952 58.488289 
L 72.651409 58.582677 
L 72.400859 58.616594 
L 71.690766 58.681151 
L 70.980673 58.710697 
L 70.27058 58.702761 
L 69.560487 58.65083 
z
" clip-path="url(#pe479ebe136)" style="fill: #1a68ae; fill-opacity: 0.5"/>
    <path d="M 69.560487 58.65083 
L 70.27058 58.702761 
L 70.980673 58.710697 
L 71.690766 58.681151 
L 72.400859 58.616594 
L 72.651409 58.582677 
L 73.110952 58.488289 
L 73.821045 58.2759 
L 74.531138 57.975299 
L 75.009396 57.700787 
L 74.531138 57.52321 
L 73.821045 57.122157 
L 73.464588 56.818898 
L 73.110952 56.722691 
L 72.400859 56.53623 
L 71.690766 56.345564 
L 70.980673 56.149226 
L 70.27058 55.943774 
L 70.244088 55.937008 
L 69.560487 55.807943 
L 68.850394 55.700836 
L 68.140301 55.630084 
L 67.430208 55.61257 
L 66.720115 55.677961 
L 66.010021 55.883661 
L 65.907981 55.937008 
L 66.010021 56.440857 
L 66.065225 56.818898 
L 66.720115 57.641505 
L 66.787095 57.700787 
L 67.430208 58.05336 
L 68.140301 58.338756 
L 68.850394 58.53899 
L 69.092598 58.582677 
z
M 68.177831 57.700787 
L 68.140301 57.681229 
L 67.430208 57.200134 
L 67.001251 56.818898 
L 67.430208 56.27415 
L 68.140301 56.081423 
L 68.850394 56.113352 
L 69.560487 56.213727 
L 70.27058 56.343371 
L 70.980673 56.487792 
L 71.690766 56.640703 
L 72.400859 56.798941 
L 72.481025 56.818898 
L 73.110952 57.535675 
L 73.380485 57.700787 
L 73.110952 57.79598 
L 72.400859 57.97507 
L 71.690766 58.084785 
L 70.980673 58.131971 
L 70.27058 58.121321 
L 69.560487 58.049614 
L 68.850394 57.906855 
z
" clip-path="url(#pe479ebe136)" style="fill: #0e58a2; fill-opacity: 0.5"/>
    <path d="M 68.850394 57.906855 
L 69.560487 58.049614 
L 70.27058 58.121321 
L 70.980673 58.131971 
L 71.690766 58.084785 
L 72.400859 57.97507 
L 73.110952 57.79598 
L 73.380485 57.700787 
L 73.110952 57.535675 
L 72.481025 56.818898 
L 72.400859 56.798941 
L 71.690766 56.640703 
L 70.980673 56.487792 
L 70.27058 56.343371 
L 69.560487 56.213727 
L 68.850394 56.113352 
L 68.140301 56.081423 
L 67.430208 56.27415 
L 67.001251 56.818898 
L 67.430208 57.200134 
L 68.140301 57.681229 
L 68.177831 57.700787 
z
M 68.620511 56.818898 
L 68.850394 56.757817 
L 69.560487 56.70518 
L 70.27058 56.742967 
L 70.906879 56.818898 
L 70.27058 57.154645 
L 69.560487 57.126046 
L 68.850394 56.927618 
z
" clip-path="url(#pe479ebe136)" style="fill: #08488e; fill-opacity: 0.5"/>
    <path d="M 68.850394 56.927618 
L 69.560487 57.126046 
L 70.27058 57.154645 
L 70.906879 56.818898 
L 70.27058 56.742967 
L 69.560487 56.70518 
L 68.850394 56.757817 
L 68.620511 56.818898 
z
" clip-path="url(#pe479ebe136)" style="fill: #083776; fill-opacity: 0.5"/>
   </g>
   <g id="PathCollection_1">
    <defs>
     <path id="mc2a42a3da5" d="M 0 3 
C 0.795609 3 1.55874 2.683901 2.12132 2.12132 
C 2.683901 1.55874 3 0.795609 3 0 
C 3 -0.795609 2.683901 -1.55874 2.12132 -2.12132 
C 1.55874 -2.683901 0.795609 -3 0 -3 
C -0.795609 -3 -1.55874 -2.683901 -2.12132 -2.12132 
C -2.683901 -1.55874 -3 -0.795609 -3 0 
C -3 0.795609 -2.683901 1.55874 -2.12132 2.12132 
C -1.55874 2.683901 -0.795609 3 0 3 
z
" style="stroke: #ffffff; stroke-width: 0.48"/>
    </defs>
    <g clip-path="url(#pe479ebe136)">
     <use xlink:href="#mc2a42a3da5" x="14.173228" y="86.061182" style="fill: #1f77b4; stroke: #ffffff; stroke-width: 0.48"/>
     <use xlink:href="#mc2a42a3da5" x="28.190542" y="89.232076" style="fill: #1f77b4; stroke: #ffffff; stroke-width: 0.48"/>
     <use xlink:href="#mc2a42a3da5" x="39.907135" y="81.602909" style="fill: #1f77b4; stroke: #ffffff; stroke-width: 0.48"/>
     <use xlink:href="#mc2a42a3da5" x="41.85056" y="79.105867" style="fill: #1f77b4; stroke: #ffffff; stroke-width: 0.48"/>
     <use xlink:href="#mc2a42a3da5" x="50.222105" y="72.956732" style="fill: #1f77b4; stroke: #ffffff; stroke-width: 0.48"/>
     <use xlink:href="#mc2a42a3da5" x="64.36696" y="100.913386" style="fill: #1f77b4; stroke: #ffffff; stroke-width: 0.48"/>
     <use xlink:href="#mc2a42a3da5" x="77.180387" y="91.657076" style="fill: #1f77b4; stroke: #ffffff; stroke-width: 0.48"/>
     <use xlink:href="#mc2a42a3da5" x="79.075648" y="79.128795" style="fill: #1f77b4; stroke: #ffffff; stroke-width: 0.48"/>
     <use xlink:href="#mc2a42a3da5" x="78.638223" y="77.060701" style="fill: #1f77b4; stroke: #ffffff; stroke-width: 0.48"/>
     <use xlink:href="#mc2a42a3da5" x="72.852883" y="74.922507" style="fill: #1f77b4; stroke: #ffffff; stroke-width: 0.48"/>
     <use xlink:href="#mc2a42a3da5" x="84.472441" y="59.364179" style="fill: #1f77b4; stroke: #ffffff; stroke-width: 0.48"/>
     <use xlink:href="#mc2a42a3da5" x="84.277687" y="58.844662" style="fill: #1f77b4; stroke: #ffffff; stroke-width: 0.48"/>
     <use xlink:href="#mc2a42a3da5" x="69.493732" y="68.807322" style="fill: #1f77b4; stroke: #ffffff; stroke-width: 0.48"/>
     <use xlink:href="#mc2a42a3da5" x="53.331765" y="51.54051" style="fill: #1f77b4; stroke: #ffffff; stroke-width: 0.48"/>
     <use xlink:href="#mc2a42a3da5" x="68.064228" y="65.635824" style="fill: #1f77b4; stroke: #ffffff; stroke-width: 0.48"/>
     <use xlink:href="#mc2a42a3da5" x="68.842936" y="63.070044" style="fill: #1f77b4; stroke: #ffffff; stroke-width: 0.48"/>
     <use xlink:href="#mc2a42a3da5" x="27.414188" y="68.510432" style="fill: #1f77b4; stroke: #ffffff; stroke-width: 0.48"/>
     <use xlink:href="#mc2a42a3da5" x="30.232996" y="67.361717" style="fill: #1f77b4; stroke: #ffffff; stroke-width: 0.48"/>
     <use xlink:href="#mc2a42a3da5" x="27.871297" y="71.273906" style="fill: #1f77b4; stroke: #ffffff; stroke-width: 0.48"/>
     <use xlink:href="#mc2a42a3da5" x="31.665821" y="68.520743" style="fill: #1f77b4; stroke: #ffffff; stroke-width: 0.48"/>
     <use xlink:href="#mc2a42a3da5" x="22.44528" y="64.906237" style="fill: #1f77b4; stroke: #ffffff; stroke-width: 0.48"/>
     <use xlink:href="#mc2a42a3da5" x="30.61579" y="70.559939" style="fill: #1f77b4; stroke: #ffffff; stroke-width: 0.48"/>
     <use xlink:href="#mc2a42a3da5" x="28.930139" y="68.780677" style="fill: #1f77b4; stroke: #ffffff; stroke-width: 0.48"/>
     <use xlink:href="#mc2a42a3da5" x="26.252602" y="66.252473" style="fill: #1f77b4; stroke: #ffffff; stroke-width: 0.48"/>
     <use xlink:href="#mc2a42a3da5" x="30.498057" y="61.59659" style="fill: #1f77b4; stroke: #ffffff; stroke-width: 0.48"/>
     <use xlink:href="#mc2a42a3da5" x="31.673826" y="61.87798" style="fill: #1f77b4; stroke: #ffffff; stroke-width: 0.48"/>
     <use xlink:href="#mc2a42a3da5" x="30.324304" y="59.845721" style="fill: #1f77b4; stroke: #ffffff; stroke-width: 0.48"/>
     <use xlink:href="#mc2a42a3da5" x="27.44715" y="56.906728" style="fill: #1f77b4; stroke: #ffffff; stroke-width: 0.48"/>
     <use xlink:href="#mc2a42a3da5" x="30.880322" y="60.014744" style="fill: #1f77b4; stroke: #ffffff; stroke-width: 0.48"/>
     <use xlink:href="#mc2a42a3da5" x="62.115852" y="48.604025" style="fill: #1f77b4; stroke: #ffffff; stroke-width: 0.48"/>
     <use xlink:href="#mc2a42a3da5" x="63.462536" y="13.606299" style="fill: #1f77b4; stroke: #ffffff; stroke-width: 0.48"/>
     <use xlink:href="#mc2a42a3da5" x="71.760707" y="14.228854" style="fill: #1f77b4; stroke: #ffffff; stroke-width: 0.48"/>
     <use xlink:href="#mc2a42a3da5" x="57.424323" y="46.08819" style="fill: #1f77b4; stroke: #ffffff; stroke-width: 0.48"/>
     <use xlink:href="#mc2a42a3da5" x="69.281299" y="53.753514" style="fill: #1f77b4; stroke: #ffffff; stroke-width: 0.48"/>
     <use xlink:href="#mc2a42a3da5" x="66.379839" y="56.468736" style="fill: #1f77b4; stroke: #ffffff; stroke-width: 0.48"/>
     <use xlink:href="#mc2a42a3da5" x="57.589699" y="52.94213" style="fill: #1f77b4; stroke: #ffffff; stroke-width: 0.48"/>
     <use xlink:href="#mc2a42a3da5" x="60.800145" y="57.232791" style="fill: #1f77b4; stroke: #ffffff; stroke-width: 0.48"/>
     <use xlink:href="#mc2a42a3da5" x="63.299418" y="58.280344" style="fill: #1f77b4; stroke: #ffffff; stroke-width: 0.48"/>
    </g>
   </g>
   <g id="Quiver_1">
    <path d="M 49.523499 72.878323 
L 50.100704 67.735564 
L 48.625083 68.277352 
L 51.50499 61.526522 
L 52.816718 68.747806 
L 51.497915 67.892382 
L 50.920711 73.035141 
L 49.523499 72.878323 
" clip-path="url(#pe479ebe136)" style="fill: #ff0000"/>
   </g>
   <g id="text_1">
    <!-- RMSD Variance -->
    <g transform="translate(22.721741 7.606299) scale(0.07 -0.07)">
     <defs>
      <path id="DejaVuSans-52" d="M 2841 2188 
Q 3044 2119 3236 1894 
Q 3428 1669 3622 1275 
L 4263 0 
L 3584 0 
L 2988 1197 
Q 2756 1666 2539 1819 
Q 2322 1972 1947 1972 
L 1259 1972 
L 1259 0 
L 628 0 
L 628 4666 
L 2053 4666 
Q 2853 4666 3247 4331 
Q 3641 3997 3641 3322 
Q 3641 2881 3436 2590 
Q 3231 2300 2841 2188 
z
M 1259 4147 
L 1259 2491 
L 2053 2491 
Q 2509 2491 2742 2702 
Q 2975 2913 2975 3322 
Q 2975 3731 2742 3939 
Q 2509 4147 2053 4147 
L 1259 4147 
z
" transform="scale(0.015625)"/>
      <path id="DejaVuSans-4d" d="M 628 4666 
L 1569 4666 
L 2759 1491 
L 3956 4666 
L 4897 4666 
L 4897 0 
L 4281 0 
L 4281 4097 
L 3078 897 
L 2444 897 
L 1241 4097 
L 1241 0 
L 628 0 
L 628 4666 
z
" transform="scale(0.015625)"/>
      <path id="DejaVuSans-53" d="M 3425 4513 
L 3425 3897 
Q 3066 4069 2747 4153 
Q 2428 4238 2131 4238 
Q 1616 4238 1336 4038 
Q 1056 3838 1056 3469 
Q 1056 3159 1242 3001 
Q 1428 2844 1947 2747 
L 2328 2669 
Q 3034 2534 3370 2195 
Q 3706 1856 3706 1288 
Q 3706 609 3251 259 
Q 2797 -91 1919 -91 
Q 1588 -91 1214 -16 
Q 841 59 441 206 
L 441 856 
Q 825 641 1194 531 
Q 1563 422 1919 422 
Q 2459 422 2753 634 
Q 3047 847 3047 1241 
Q 3047 1584 2836 1778 
Q 2625 1972 2144 2069 
L 1759 2144 
Q 1053 2284 737 2584 
Q 422 2884 422 3419 
Q 422 4038 858 4394 
Q 1294 4750 2059 4750 
Q 2388 4750 2728 4690 
Q 3069 4631 3425 4513 
z
" transform="scale(0.015625)"/>
      <path id="DejaVuSans-44" d="M 1259 4147 
L 1259 519 
L 2022 519 
Q 2988 519 3436 956 
Q 3884 1394 3884 2338 
Q 3884 3275 3436 3711 
Q 2988 4147 2022 4147 
L 1259 4147 
z
M 628 4666 
L 1925 4666 
Q 3281 4666 3915 4102 
Q 4550 3538 4550 2338 
Q 4550 1131 3912 565 
Q 3275 0 1925 0 
L 628 0 
L 628 4666 
z
" transform="scale(0.015625)"/>
      <path id="DejaVuSans-20" transform="scale(0.015625)"/>
      <path id="DejaVuSans-56" d="M 1831 0 
L 50 4666 
L 709 4666 
L 2188 738 
L 3669 4666 
L 4325 4666 
L 2547 0 
L 1831 0 
z
" transform="scale(0.015625)"/>
      <path id="DejaVuSans-61" d="M 2194 1759 
Q 1497 1759 1228 1600 
Q 959 1441 959 1056 
Q 959 750 1161 570 
Q 1363 391 1709 391 
Q 2188 391 2477 730 
Q 2766 1069 2766 1631 
L 2766 1759 
L 2194 1759 
z
M 3341 1997 
L 3341 0 
L 2766 0 
L 2766 531 
Q 2569 213 2275 61 
Q 1981 -91 1556 -91 
Q 1019 -91 701 211 
Q 384 513 384 1019 
Q 384 1609 779 1909 
Q 1175 2209 1959 2209 
L 2766 2209 
L 2766 2266 
Q 2766 2663 2505 2880 
Q 2244 3097 1772 3097 
Q 1472 3097 1187 3025 
Q 903 2953 641 2809 
L 641 3341 
Q 956 3463 1253 3523 
Q 1550 3584 1831 3584 
Q 2591 3584 2966 3190 
Q 3341 2797 3341 1997 
z
" transform="scale(0.015625)"/>
      <path id="DejaVuSans-72" d="M 2631 2963 
Q 2534 3019 2420 3045 
Q 2306 3072 2169 3072 
Q 1681 3072 1420 2755 
Q 1159 2438 1159 1844 
L 1159 0 
L 581 0 
L 581 3500 
L 1159 3500 
L 1159 2956 
Q 1341 3275 1631 3429 
Q 1922 3584 2338 3584 
Q 2397 3584 2469 3576 
Q 2541 3569 2628 3553 
L 2631 2963 
z
" transform="scale(0.015625)"/>
      <path id="DejaVuSans-69" d="M 603 3500 
L 1178 3500 
L 1178 0 
L 603 0 
L 603 3500 
z
M 603 4863 
L 1178 4863 
L 1178 4134 
L 603 4134 
L 603 4863 
z
" transform="scale(0.015625)"/>
      <path id="DejaVuSans-6e" d="M 3513 2113 
L 3513 0 
L 2938 0 
L 2938 2094 
Q 2938 2591 2744 2837 
Q 2550 3084 2163 3084 
Q 1697 3084 1428 2787 
Q 1159 2491 1159 1978 
L 1159 0 
L 581 0 
L 581 3500 
L 1159 3500 
L 1159 2956 
Q 1366 3272 1645 3428 
Q 1925 3584 2291 3584 
Q 2894 3584 3203 3211 
Q 3513 2838 3513 2113 
z
" transform="scale(0.015625)"/>
      <path id="DejaVuSans-63" d="M 3122 3366 
L 3122 2828 
Q 2878 2963 2633 3030 
Q 2388 3097 2138 3097 
Q 1578 3097 1268 2742 
Q 959 2388 959 1747 
Q 959 1106 1268 751 
Q 1578 397 2138 397 
Q 2388 397 2633 464 
Q 2878 531 3122 666 
L 3122 134 
Q 2881 22 2623 -34 
Q 2366 -91 2075 -91 
Q 1284 -91 818 406 
Q 353 903 353 1747 
Q 353 2603 823 3093 
Q 1294 3584 2113 3584 
Q 2378 3584 2631 3529 
Q 2884 3475 3122 3366 
z
" transform="scale(0.015625)"/>
      <path id="DejaVuSans-65" d="M 3597 1894 
L 3597 1613 
L 953 1613 
Q 991 1019 1311 708 
Q 1631 397 2203 397 
Q 2534 397 2845 478 
Q 3156 559 3463 722 
L 3463 178 
Q 3153 47 2828 -22 
Q 2503 -91 2169 -91 
Q 1331 -91 842 396 
Q 353 884 353 1716 
Q 353 2575 817 3079 
Q 1281 3584 2069 3584 
Q 2775 3584 3186 3129 
Q 3597 2675 3597 1894 
z
M 3022 2063 
Q 3016 2534 2758 2815 
Q 2500 3097 2075 3097 
Q 1594 3097 1305 2825 
Q 1016 2553 972 2059 
L 3022 2063 
z
" transform="scale(0.015625)"/>
     </defs>
     <use xlink:href="#DejaVuSans-52"/>
     <use xlink:href="#DejaVuSans-4d" transform="translate(69.482422 0)"/>
     <use xlink:href="#DejaVuSans-53" transform="translate(155.761719 0)"/>
     <use xlink:href="#DejaVuSans-44" transform="translate(219.238281 0)"/>
     <use xlink:href="#DejaVuSans-20" transform="translate(296.240234 0)"/>
     <use xlink:href="#DejaVuSans-56" transform="translate(328.027344 0)"/>
     <use xlink:href="#DejaVuSans-61" transform="translate(388.685547 0)"/>
     <use xlink:href="#DejaVuSans-72" transform="translate(449.964844 0)"/>
     <use xlink:href="#DejaVuSans-69" transform="translate(491.078125 0)"/>
     <use xlink:href="#DejaVuSans-61" transform="translate(518.861328 0)"/>
     <use xlink:href="#DejaVuSans-6e" transform="translate(580.140625 0)"/>
     <use xlink:href="#DejaVuSans-63" transform="translate(643.519531 0)"/>
     <use xlink:href="#DejaVuSans-65" transform="translate(698.5 0)"/>
    </g>
   </g>
  </g>
  <g id="axes_2">
   <g id="patch_2">
    <path d="M 88.866142 100.913386 
L 93.231496 100.913386 
L 93.231496 13.606299 
L 88.866142 13.606299 
z
" style="fill: #ffffff"/>
   </g>
   <g id="QuadMesh_1">
    <path d="M 88.866142 100.913386 
L 93.231496 100.913386 
L 93.231496 95.456693 
L 88.866142 95.456693 
L 88.866142 100.913386 
" clip-path="url(#p72c41cc04a)" style="fill: #f1f7fd; fill-opacity: 0.5"/>
    <path d="M 88.866142 95.456693 
L 93.231496 95.456693 
L 93.231496 90 
L 88.866142 90 
L 88.866142 95.456693 
" clip-path="url(#p72c41cc04a)" style="fill: #e4eff9; fill-opacity: 0.5"/>
    <path d="M 88.866142 90 
L 93.231496 90 
L 93.231496 84.543307 
L 88.866142 84.543307 
L 88.866142 90 
" clip-path="url(#p72c41cc04a)" style="fill: #d8e7f5; fill-opacity: 0.5"/>
    <path d="M 88.866142 84.543307 
L 93.231496 84.543307 
L 93.231496 79.086614 
L 88.866142 79.086614 
L 88.866142 84.543307 
" clip-path="url(#p72c41cc04a)" style="fill: #ccdff1; fill-opacity: 0.5"/>
    <path d="M 88.866142 79.086614 
L 93.231496 79.086614 
L 93.231496 73.629921 
L 88.866142 73.629921 
L 88.866142 79.086614 
" clip-path="url(#p72c41cc04a)" style="fill: #bcd7eb; fill-opacity: 0.5"/>
    <path d="M 88.866142 73.629921 
L 93.231496 73.629921 
L 93.231496 68.173228 
L 88.866142 68.173228 
L 88.866142 73.629921 
" clip-path="url(#p72c41cc04a)" style="fill: #a8cee4; fill-opacity: 0.5"/>
    <path d="M 88.866142 68.173228 
L 93.231496 68.173228 
L 93.231496 62.716535 
L 88.866142 62.716535 
L 88.866142 68.173228 
" clip-path="url(#p72c41cc04a)" style="fill: #91c3de; fill-opacity: 0.5"/>
    <path d="M 88.866142 62.716535 
L 93.231496 62.716535 
L 93.231496 57.259843 
L 88.866142 57.259843 
L 88.866142 62.716535 
" clip-path="url(#p72c41cc04a)" style="fill: #77b5d9; fill-opacity: 0.5"/>
    <path d="M 88.866142 57.259843 
L 93.231496 57.259843 
L 93.231496 51.80315 
L 88.866142 51.80315 
L 88.866142 57.259843 
" clip-path="url(#p72c41cc04a)" style="fill: #60a7d2; fill-opacity: 0.5"/>
    <path d="M 88.866142 51.80315 
L 93.231496 51.80315 
L 93.231496 46.346457 
L 88.866142 46.346457 
L 88.866142 51.80315 
" clip-path="url(#p72c41cc04a)" style="fill: #4d99ca; fill-opacity: 0.5"/>
    <path d="M 88.866142 46.346457 
L 93.231496 46.346457 
L 93.231496 40.889764 
L 88.866142 40.889764 
L 88.866142 46.346457 
" clip-path="url(#p72c41cc04a)" style="fill: #3989c1; fill-opacity: 0.5"/>
    <path d="M 88.866142 40.889764 
L 93.231496 40.889764 
L 93.231496 35.433071 
L 88.866142 35.433071 
L 88.866142 40.889764 
" clip-path="url(#p72c41cc04a)" style="fill: #2979b9; fill-opacity: 0.5"/>
    <path d="M 88.866142 35.433071 
L 93.231496 35.433071 
L 93.231496 29.976378 
L 88.866142 29.976378 
L 88.866142 35.433071 
" clip-path="url(#p72c41cc04a)" style="fill: #1a68ae; fill-opacity: 0.5"/>
    <path d="M 88.866142 29.976378 
L 93.231496 29.976378 
L 93.231496 24.519685 
L 88.866142 24.519685 
L 88.866142 29.976378 
" clip-path="url(#p72c41cc04a)" style="fill: #0e58a2; fill-opacity: 0.5"/>
    <path d="M 88.866142 24.519685 
L 93.231496 24.519685 
L 93.231496 19.062992 
L 88.866142 19.062992 
L 88.866142 24.519685 
" clip-path="url(#p72c41cc04a)" style="fill: #08488e; fill-opacity: 0.5"/>
    <path d="M 88.866142 19.062992 
L 93.231496 19.062992 
L 93.231496 13.606299 
L 88.866142 13.606299 
L 88.866142 19.062992 
" clip-path="url(#p72c41cc04a)" style="fill: #083776; fill-opacity: 0.5"/>
   </g>
   <g id="matplotlib.axis_1"/>
   <g id="matplotlib.axis_2">
    <g id="ytick_1">
     <g id="line2d_1">
      <defs>
       <path id="mdf87e6015f" d="M 0 0 
L 3.5 0 
" style="stroke: #000000; stroke-width: 0.8"/>
      </defs>
      <g>
       <use xlink:href="#mdf87e6015f" x="93.231496" y="100.913386" style="stroke: #000000; stroke-width: 0.8"/>
      </g>
     </g>
     <g id="text_2">
      <!-- -5 -->
      <g transform="translate(100.231496 103.572839) scale(0.07 -0.07)">
       <defs>
        <path id="DejaVuSans-2d" d="M 313 2009 
L 1997 2009 
L 1997 1497 
L 313 1497 
L 313 2009 
z
" transform="scale(0.015625)"/>
        <path id="DejaVuSans-35" d="M 691 4666 
L 3169 4666 
L 3169 4134 
L 1269 4134 
L 1269 2991 
Q 1406 3038 1543 3061 
Q 1681 3084 1819 3084 
Q 2600 3084 3056 2656 
Q 3513 2228 3513 1497 
Q 3513 744 3044 326 
Q 2575 -91 1722 -91 
Q 1428 -91 1123 -41 
Q 819 9 494 109 
L 494 744 
Q 775 591 1075 516 
Q 1375 441 1709 441 
Q 2250 441 2565 725 
Q 2881 1009 2881 1497 
Q 2881 1984 2565 2268 
Q 2250 2553 1709 2553 
Q 1456 2553 1204 2497 
Q 953 2441 691 2322 
L 691 4666 
z
" transform="scale(0.015625)"/>
       </defs>
       <use xlink:href="#DejaVuSans-2d"/>
       <use xlink:href="#DejaVuSans-35" transform="translate(36.083984 0)"/>
      </g>
     </g>
    </g>
    <g id="ytick_2">
     <g id="line2d_2">
      <g>
       <use xlink:href="#mdf87e6015f" x="93.231496" y="90" style="stroke: #000000; stroke-width: 0.8"/>
      </g>
     </g>
     <g id="text_3">
      <!-- -3 -->
      <g transform="translate(100.231496 92.659453) scale(0.07 -0.07)">
       <defs>
        <path id="DejaVuSans-33" d="M 2597 2516 
Q 3050 2419 3304 2112 
Q 3559 1806 3559 1356 
Q 3559 666 3084 287 
Q 2609 -91 1734 -91 
Q 1441 -91 1130 -33 
Q 819 25 488 141 
L 488 750 
Q 750 597 1062 519 
Q 1375 441 1716 441 
Q 2309 441 2620 675 
Q 2931 909 2931 1356 
Q 2931 1769 2642 2001 
Q 2353 2234 1838 2234 
L 1294 2234 
L 1294 2753 
L 1863 2753 
Q 2328 2753 2575 2939 
Q 2822 3125 2822 3475 
Q 2822 3834 2567 4026 
Q 2313 4219 1838 4219 
Q 1578 4219 1281 4162 
Q 984 4106 628 3988 
L 628 4550 
Q 988 4650 1302 4700 
Q 1616 4750 1894 4750 
Q 2613 4750 3031 4423 
Q 3450 4097 3450 3541 
Q 3450 3153 3228 2886 
Q 3006 2619 2597 2516 
z
" transform="scale(0.015625)"/>
       </defs>
       <use xlink:href="#DejaVuSans-2d"/>
       <use xlink:href="#DejaVuSans-33" transform="translate(36.083984 0)"/>
      </g>
     </g>
    </g>
    <g id="ytick_3">
     <g id="line2d_3">
      <g>
       <use xlink:href="#mdf87e6015f" x="93.231496" y="79.086614" style="stroke: #000000; stroke-width: 0.8"/>
      </g>
     </g>
     <g id="text_4">
      <!-- -2 -->
      <g transform="translate(100.231496 81.746067) scale(0.07 -0.07)">
       <defs>
        <path id="DejaVuSans-32" d="M 1228 531 
L 3431 531 
L 3431 0 
L 469 0 
L 469 531 
Q 828 903 1448 1529 
Q 2069 2156 2228 2338 
Q 2531 2678 2651 2914 
Q 2772 3150 2772 3378 
Q 2772 3750 2511 3984 
Q 2250 4219 1831 4219 
Q 1534 4219 1204 4116 
Q 875 4013 500 3803 
L 500 4441 
Q 881 4594 1212 4672 
Q 1544 4750 1819 4750 
Q 2544 4750 2975 4387 
Q 3406 4025 3406 3419 
Q 3406 3131 3298 2873 
Q 3191 2616 2906 2266 
Q 2828 2175 2409 1742 
Q 1991 1309 1228 531 
z
" transform="scale(0.015625)"/>
       </defs>
       <use xlink:href="#DejaVuSans-2d"/>
       <use xlink:href="#DejaVuSans-32" transform="translate(36.083984 0)"/>
      </g>
     </g>
    </g>
    <g id="ytick_4">
     <g id="line2d_4">
      <g>
       <use xlink:href="#mdf87e6015f" x="93.231496" y="68.173228" style="stroke: #000000; stroke-width: 0.8"/>
      </g>
     </g>
     <g id="text_5">
      <!-- 0 -->
      <g transform="translate(100.231496 70.832681) scale(0.07 -0.07)">
       <defs>
        <path id="DejaVuSans-30" d="M 2034 4250 
Q 1547 4250 1301 3770 
Q 1056 3291 1056 2328 
Q 1056 1369 1301 889 
Q 1547 409 2034 409 
Q 2525 409 2770 889 
Q 3016 1369 3016 2328 
Q 3016 3291 2770 3770 
Q 2525 4250 2034 4250 
z
M 2034 4750 
Q 2819 4750 3233 4129 
Q 3647 3509 3647 2328 
Q 3647 1150 3233 529 
Q 2819 -91 2034 -91 
Q 1250 -91 836 529 
Q 422 1150 422 2328 
Q 422 3509 836 4129 
Q 1250 4750 2034 4750 
z
" transform="scale(0.015625)"/>
       </defs>
       <use xlink:href="#DejaVuSans-30"/>
      </g>
     </g>
    </g>
    <g id="ytick_5">
     <g id="line2d_5">
      <g>
       <use xlink:href="#mdf87e6015f" x="93.231496" y="57.259843" style="stroke: #000000; stroke-width: 0.8"/>
      </g>
     </g>
     <g id="text_6">
      <!-- 2 -->
      <g transform="translate(100.231496 59.919296) scale(0.07 -0.07)">
       <use xlink:href="#DejaVuSans-32"/>
      </g>
     </g>
    </g>
    <g id="ytick_6">
     <g id="line2d_6">
      <g>
       <use xlink:href="#mdf87e6015f" x="93.231496" y="46.346457" style="stroke: #000000; stroke-width: 0.8"/>
      </g>
     </g>
     <g id="text_7">
      <!-- 3 -->
      <g transform="translate(100.231496 49.00591) scale(0.07 -0.07)">
       <use xlink:href="#DejaVuSans-33"/>
      </g>
     </g>
    </g>
    <g id="ytick_7">
     <g id="line2d_7">
      <g>
       <use xlink:href="#mdf87e6015f" x="93.231496" y="35.433071" style="stroke: #000000; stroke-width: 0.8"/>
      </g>
     </g>
     <g id="text_8">
      <!-- 5 -->
      <g transform="translate(100.231496 38.092524) scale(0.07 -0.07)">
       <use xlink:href="#DejaVuSans-35"/>
      </g>
     </g>
    </g>
    <g id="ytick_8">
     <g id="line2d_8">
      <g>
       <use xlink:href="#mdf87e6015f" x="93.231496" y="24.519685" style="stroke: #000000; stroke-width: 0.8"/>
      </g>
     </g>
     <g id="text_9">
      <!-- 6 -->
      <g transform="translate(100.231496 27.179138) scale(0.07 -0.07)">
       <defs>
        <path id="DejaVuSans-36" d="M 2113 2584 
Q 1688 2584 1439 2293 
Q 1191 2003 1191 1497 
Q 1191 994 1439 701 
Q 1688 409 2113 409 
Q 2538 409 2786 701 
Q 3034 994 3034 1497 
Q 3034 2003 2786 2293 
Q 2538 2584 2113 2584 
z
M 3366 4563 
L 3366 3988 
Q 3128 4100 2886 4159 
Q 2644 4219 2406 4219 
Q 1781 4219 1451 3797 
Q 1122 3375 1075 2522 
Q 1259 2794 1537 2939 
Q 1816 3084 2150 3084 
Q 2853 3084 3261 2657 
Q 3669 2231 3669 1497 
Q 3669 778 3244 343 
Q 2819 -91 2113 -91 
Q 1303 -91 875 529 
Q 447 1150 447 2328 
Q 447 3434 972 4092 
Q 1497 4750 2381 4750 
Q 2619 4750 2861 4703 
Q 3103 4656 3366 4563 
z
" transform="scale(0.015625)"/>
       </defs>
       <use xlink:href="#DejaVuSans-36"/>
      </g>
     </g>
    </g>
    <g id="ytick_9">
     <g id="line2d_9">
      <g>
       <use xlink:href="#mdf87e6015f" x="93.231496" y="13.606299" style="stroke: #000000; stroke-width: 0.8"/>
      </g>
     </g>
     <g id="text_10">
      <!-- 8 -->
      <g transform="translate(100.231496 16.265752) scale(0.07 -0.07)">
       <defs>
        <path id="DejaVuSans-38" d="M 2034 2216 
Q 1584 2216 1326 1975 
Q 1069 1734 1069 1313 
Q 1069 891 1326 650 
Q 1584 409 2034 409 
Q 2484 409 2743 651 
Q 3003 894 3003 1313 
Q 3003 1734 2745 1975 
Q 2488 2216 2034 2216 
z
M 1403 2484 
Q 997 2584 770 2862 
Q 544 3141 544 3541 
Q 544 4100 942 4425 
Q 1341 4750 2034 4750 
Q 2731 4750 3128 4425 
Q 3525 4100 3525 3541 
Q 3525 3141 3298 2862 
Q 3072 2584 2669 2484 
Q 3125 2378 3379 2068 
Q 3634 1759 3634 1313 
Q 3634 634 3220 271 
Q 2806 -91 2034 -91 
Q 1263 -91 848 271 
Q 434 634 434 1313 
Q 434 1759 690 2068 
Q 947 2378 1403 2484 
z
M 1172 3481 
Q 1172 3119 1398 2916 
Q 1625 2713 2034 2713 
Q 2441 2713 2670 2916 
Q 2900 3119 2900 3481 
Q 2900 3844 2670 4047 
Q 2441 4250 2034 4250 
Q 1625 4250 1398 4047 
Q 1172 3844 1172 3481 
z
" transform="scale(0.015625)"/>
       </defs>
       <use xlink:href="#DejaVuSans-38"/>
      </g>
     </g>
    </g>
   </g>
   <g id="LineCollection_1"/>
   <g id="patch_3">
    <path d="M 88.866142 100.913386 
L 91.048819 100.913386 
L 93.231496 100.913386 
L 93.231496 13.606299 
L 91.048819 13.606299 
L 88.866142 13.606299 
L 88.866142 100.913386 
z
" style="fill: none; stroke: #000000; stroke-width: 0.8; stroke-linejoin: miter; stroke-linecap: square"/>
   </g>
  </g>
 </g>
 <defs>
  <clipPath id="pe479ebe136">
   <rect x="14.173228" y="13.606299" width="70.299213" height="87.307087"/>
  </clipPath>
  <clipPath id="p72c41cc04a">
   <rect x="88.866142" y="13.606299" width="4.365354" height="87.307087"/>
  </clipPath>
 </defs>
</svg>
